M48
;Layer_Color=6321
;FILE_FORMAT=2:4
INCH,TZ
;TYPE=NON_PLATED
T7F00S00C0.0300
T8F00S00C0.0354
T9F00S00C0.0670
T10F00S00C0.0787
T11F00S00C0.1570
%
T07
X12402Y33120
X14685
T08
X16909Y17630
Y18811
X20014Y34739
X21195
T09
X18837Y14537
X22837
X26337
X30337
X33837
X37837
X41337
X45337
Y22037
X41337
X37837
X33837
X30337
X26337
X22837
X18837
T10
X10591Y10591
X17598Y15157
X39094
X47677Y10591
X32756Y22815
X25276
X20472Y30039
X10591Y35039
X35276Y31496
X47677Y35039
T11
X20837Y14537
X28337
X35837
X43337
Y22037
X35837
X28337
X20837
M30
