G04*
G04 #@! TF.GenerationSoftware,Altium Limited,CircuitMaker,2.2.1 (2.2.1.6)*
G04*
G04 Layer_Color=7318015*
%FSLAX25Y25*%
%MOIN*%
G70*
G04*
G04 #@! TF.SameCoordinates,0C0BB1EE-0056-4C80-8B96-835DB9A5DFF7*
G04*
G04*
G04 #@! TF.FilePolarity,Positive*
G04*
G01*
G75*
%ADD18R,0.04331X0.05118*%
%ADD19R,0.01417X0.01260*%
%ADD20R,0.03268X0.03268*%
%ADD21R,0.03937X0.04134*%
%ADD22R,0.01260X0.01417*%
%ADD23O,0.04331X0.02165*%
%ADD24R,0.02756X0.02559*%
%ADD25R,0.03150X0.03740*%
G04:AMPARAMS|DCode=26|XSize=10.63mil|YSize=82.68mil|CornerRadius=0mil|HoleSize=0mil|Usage=FLASHONLY|Rotation=135.000|XOffset=0mil|YOffset=0mil|HoleType=Round|Shape=Round|*
%AMOVALD26*
21,1,0.07205,0.01063,0.00000,0.00000,225.0*
1,1,0.01063,0.02547,0.02547*
1,1,0.01063,-0.02547,-0.02547*
%
%ADD26OVALD26*%

G04:AMPARAMS|DCode=27|XSize=10.63mil|YSize=82.68mil|CornerRadius=0mil|HoleSize=0mil|Usage=FLASHONLY|Rotation=225.000|XOffset=0mil|YOffset=0mil|HoleType=Round|Shape=Round|*
%AMOVALD27*
21,1,0.07205,0.01063,0.00000,0.00000,315.0*
1,1,0.01063,-0.02547,0.02547*
1,1,0.01063,0.02547,-0.02547*
%
%ADD27OVALD27*%

G04:AMPARAMS|DCode=28|XSize=10.63mil|YSize=82.68mil|CornerRadius=0mil|HoleSize=0mil|Usage=FLASHONLY|Rotation=225.000|XOffset=0mil|YOffset=0mil|HoleType=Round|Shape=Round|*
%AMOVALD28*
21,1,0.07205,0.01063,0.00000,0.00000,315.0*
1,1,0.01063,-0.02547,0.02547*
1,1,0.01063,0.02547,-0.02547*
%
%ADD28OVALD28*%

%ADD29R,0.01181X0.03937*%
%ADD30R,0.03543X0.03937*%
%ADD31R,0.03543X0.05118*%
%ADD32R,0.04331X0.03937*%
D18*
X169252Y251366D02*
D03*
Y259634D02*
D03*
X175748D02*
D03*
Y251366D02*
D03*
D19*
X173602Y246000D02*
D03*
X171398D02*
D03*
D20*
X278878Y253346D02*
D03*
X287657D02*
D03*
X353878D02*
D03*
X362657D02*
D03*
X428681D02*
D03*
X437461D02*
D03*
X203878Y178347D02*
D03*
X212657D02*
D03*
X278878D02*
D03*
X287657D02*
D03*
X353878D02*
D03*
X362657D02*
D03*
X428681D02*
D03*
X437461D02*
D03*
X212657Y253346D02*
D03*
X203878D02*
D03*
D21*
X187000Y335547D02*
D03*
Y341453D02*
D03*
D22*
X180315Y335945D02*
D03*
Y333740D02*
D03*
D23*
X165551Y341142D02*
D03*
Y337402D02*
D03*
Y333661D02*
D03*
X175394Y341142D02*
D03*
Y333661D02*
D03*
D24*
X159646Y341043D02*
D03*
Y337303D02*
D03*
X171260Y325295D02*
D03*
Y321555D02*
D03*
X185827Y325295D02*
D03*
Y321555D02*
D03*
D25*
X105413Y334252D02*
D03*
X110728D02*
D03*
X105413Y340945D02*
D03*
X110728D02*
D03*
D26*
X131675Y271678D02*
D03*
X130283Y273070D02*
D03*
X128891Y274462D02*
D03*
X127499Y275854D02*
D03*
X126107Y277246D02*
D03*
X124715Y278638D02*
D03*
X123323Y280030D02*
D03*
X121931Y281422D02*
D03*
X120539Y282814D02*
D03*
X119147Y284206D02*
D03*
X117755Y285598D02*
D03*
X116364Y286990D02*
D03*
X139191Y309818D02*
D03*
X140583Y308426D02*
D03*
X141975Y307034D02*
D03*
X143367Y305642D02*
D03*
X144759Y304250D02*
D03*
X146151Y302858D02*
D03*
X147543Y301466D02*
D03*
X148935Y300074D02*
D03*
X150327Y298682D02*
D03*
X151719Y297290D02*
D03*
X153111Y295898D02*
D03*
X154503Y294506D02*
D03*
D27*
X116364D02*
D03*
D28*
X117755Y295898D02*
D03*
X119147Y297290D02*
D03*
X120539Y298682D02*
D03*
X121931Y300074D02*
D03*
X123323Y301466D02*
D03*
X124715Y302858D02*
D03*
X126107Y304250D02*
D03*
X127499Y305642D02*
D03*
X128891Y307034D02*
D03*
X130283Y308426D02*
D03*
X131675Y309818D02*
D03*
X154503Y286990D02*
D03*
X153111Y285598D02*
D03*
X151719Y284206D02*
D03*
X150327Y282814D02*
D03*
X148935Y281422D02*
D03*
X147543Y280030D02*
D03*
X146151Y278638D02*
D03*
X144759Y277246D02*
D03*
X143367Y275854D02*
D03*
X141975Y274462D02*
D03*
X140583Y273070D02*
D03*
X139191Y271678D02*
D03*
D29*
X148622Y325000D02*
D03*
X147441D02*
D03*
X145472D02*
D03*
X144291D02*
D03*
X136417D02*
D03*
X134449D02*
D03*
X138386D02*
D03*
X140354D02*
D03*
X142323D02*
D03*
X122244D02*
D03*
X123425D02*
D03*
X125394D02*
D03*
X126575D02*
D03*
X132480D02*
D03*
X130512D02*
D03*
X128543D02*
D03*
D30*
X435630Y310630D02*
D03*
X430512D02*
D03*
X435630Y317520D02*
D03*
X430512D02*
D03*
X435630Y299213D02*
D03*
X430512D02*
D03*
X430512Y292323D02*
D03*
X435630D02*
D03*
X285630Y310630D02*
D03*
X280512D02*
D03*
X285630Y317520D02*
D03*
X280512D02*
D03*
X285630Y299213D02*
D03*
X280512D02*
D03*
Y292323D02*
D03*
X285630D02*
D03*
D31*
X436511Y324213D02*
D03*
X429631D02*
D03*
X436511Y285630D02*
D03*
X429631D02*
D03*
X286511Y324213D02*
D03*
X279631D02*
D03*
X286511Y285630D02*
D03*
X279631D02*
D03*
D32*
X163779Y320571D02*
D03*
Y326279D02*
D03*
X178543Y320571D02*
D03*
Y326279D02*
D03*
M02*
