G04*
G04 #@! TF.GenerationSoftware,Altium Limited,CircuitMaker,2.2.1 (2.2.1.6)*
G04*
G04 Layer_Color=128*
%FSLAX25Y25*%
%MOIN*%
G70*
G04*
G04 #@! TF.SameCoordinates,0C0BB1EE-0056-4C80-8B96-835DB9A5DFF7*
G04*
G04*
G04 #@! TF.FilePolarity,Positive*
G04*
G01*
G75*
%ADD105C,0.00200*%
D105*
X172047Y151575D02*
X179921D01*
X175984Y147638D02*
Y155512D01*
X348819Y314961D02*
X356693D01*
X352756Y311024D02*
Y318898D01*
X200787Y300394D02*
X208661D01*
X204724Y296457D02*
Y304331D01*
X248819Y228150D02*
X256693D01*
X252756Y224213D02*
Y232087D01*
X323622Y228150D02*
X331496D01*
X327559Y224213D02*
Y232087D01*
X387008Y151575D02*
X394882D01*
X390945Y147638D02*
Y155512D01*
X425516Y220374D02*
X441216D01*
X433366Y212524D02*
Y228224D01*
X415416Y230374D02*
X421316D01*
X418366Y227424D02*
Y233324D01*
X440416Y240374D02*
X446316D01*
X443366Y237424D02*
Y243324D01*
X450016Y220374D02*
X456716D01*
X453366Y217024D02*
Y223724D01*
X410016Y220374D02*
X416716D01*
X413366Y217024D02*
Y223724D01*
X101969Y105905D02*
X109843D01*
X105905Y101969D02*
Y109843D01*
X167319Y176295D02*
X170862D01*
X169091Y174524D02*
Y178067D01*
X167319Y188106D02*
X170862D01*
X169091Y186335D02*
Y189878D01*
X118394Y113583D02*
X122394D01*
X120394Y111583D02*
Y115583D01*
X128394Y113583D02*
X132394D01*
X130394Y111583D02*
Y115583D01*
X138394Y113583D02*
X142394D01*
X140394Y111583D02*
Y115583D01*
X148394Y113583D02*
X152394D01*
X150394Y111583D02*
Y115583D01*
X335016Y220374D02*
X341716D01*
X338366Y217024D02*
Y223724D01*
X375016Y220374D02*
X381716D01*
X378366Y217024D02*
Y223724D01*
X365416Y240374D02*
X371316D01*
X368366Y237424D02*
Y243324D01*
X340416Y230374D02*
X346316D01*
X343366Y227424D02*
Y233324D01*
X350516Y220374D02*
X366216D01*
X358366Y212524D02*
Y228224D01*
X260016Y220374D02*
X266716D01*
X263366Y217024D02*
Y223724D01*
X300016Y220374D02*
X306716D01*
X303366Y217024D02*
Y223724D01*
X290416Y240374D02*
X296316D01*
X293366Y237424D02*
Y243324D01*
X265416Y230374D02*
X271316D01*
X268366Y227424D02*
Y233324D01*
X275516Y220374D02*
X291216D01*
X283366Y212524D02*
Y228224D01*
X410016Y145374D02*
X416716D01*
X413366Y142024D02*
Y148724D01*
X450016Y145374D02*
X456716D01*
X453366Y142024D02*
Y148724D01*
X440416Y165374D02*
X446316D01*
X443366Y162424D02*
Y168324D01*
X415416Y155374D02*
X421316D01*
X418366Y152424D02*
Y158324D01*
X425516Y145374D02*
X441216D01*
X433366Y137524D02*
Y153224D01*
X335016Y145374D02*
X341716D01*
X338366Y142024D02*
Y148724D01*
X375016Y145374D02*
X381716D01*
X378366Y142024D02*
Y148724D01*
X365416Y165374D02*
X371316D01*
X368366Y162424D02*
Y168324D01*
X340416Y155374D02*
X346316D01*
X343366Y152424D02*
Y158324D01*
X350516Y145374D02*
X366216D01*
X358366Y137524D02*
Y153224D01*
X260016Y145374D02*
X266716D01*
X263366Y142024D02*
Y148724D01*
X300016Y145374D02*
X306716D01*
X303366Y142024D02*
Y148724D01*
X290416Y165374D02*
X296316D01*
X293366Y162424D02*
Y168324D01*
X265416Y155374D02*
X271316D01*
X268366Y152424D02*
Y158324D01*
X275516Y145374D02*
X291216D01*
X283366Y137524D02*
Y153224D01*
X185016Y145374D02*
X191716D01*
X188366Y142024D02*
Y148724D01*
X225016Y145374D02*
X231716D01*
X228366Y142024D02*
Y148724D01*
X215416Y165374D02*
X221316D01*
X218366Y162424D02*
Y168324D01*
X190416Y155374D02*
X196316D01*
X193366Y152424D02*
Y158324D01*
X200516Y145374D02*
X216216D01*
X208366Y137524D02*
Y153224D01*
X367520Y314961D02*
X374606D01*
X371063Y311417D02*
Y318504D01*
X384055Y342520D02*
X387992D01*
X386024Y340551D02*
Y344488D01*
X403740Y342520D02*
X407677D01*
X405709Y340551D02*
Y344488D01*
X384055Y285433D02*
X387992D01*
X386024Y283465D02*
Y287402D01*
X393898Y285433D02*
X397835D01*
X395866Y283465D02*
Y287402D01*
X403740Y285433D02*
X407677D01*
X405709Y283465D02*
Y287402D01*
X417126Y314961D02*
X424213D01*
X420669Y311417D02*
Y318504D01*
X217520Y314961D02*
X224606D01*
X221063Y311417D02*
Y318504D01*
X234055Y342520D02*
X237992D01*
X236024Y340551D02*
Y344488D01*
X253740Y342520D02*
X257677D01*
X255709Y340551D02*
Y344488D01*
X234055Y285433D02*
X237992D01*
X236024Y283465D02*
Y287402D01*
X243898Y285433D02*
X247835D01*
X245866Y283465D02*
Y287402D01*
X253740Y285433D02*
X257677D01*
X255709Y283465D02*
Y287402D01*
X267126Y314961D02*
X274213D01*
X270669Y311417D02*
Y318504D01*
X210181Y347390D02*
X213724D01*
X211953Y345618D02*
Y349161D01*
X198370Y347390D02*
X201913D01*
X200142Y345618D02*
Y349161D01*
X149705Y345768D02*
X155217D01*
X152461Y343012D02*
Y348524D01*
X115650Y345768D02*
X121161D01*
X118405Y343012D02*
Y348524D01*
X149114Y329232D02*
X155807D01*
X152461Y325886D02*
Y332579D01*
X115059Y329232D02*
X121752D01*
X118405Y325886D02*
Y332579D01*
X145350Y331201D02*
X148350D01*
X146850Y329701D02*
Y332701D01*
X122516Y331201D02*
X125516D01*
X124016Y329701D02*
Y332701D01*
X200516Y220374D02*
X216216D01*
X208366Y212524D02*
Y228224D01*
X190416Y230374D02*
X196316D01*
X193366Y227424D02*
Y233324D01*
X215416Y240374D02*
X221316D01*
X218366Y237424D02*
Y243324D01*
X225016Y220374D02*
X231716D01*
X228366Y217024D02*
Y223724D01*
X185016Y220374D02*
X191716D01*
X188366Y217024D02*
Y223724D01*
X472835Y350394D02*
X480709D01*
X476772Y346457D02*
Y354331D01*
X101969Y350394D02*
X109843D01*
X105905Y346457D02*
Y354331D01*
X472835Y105905D02*
X480709D01*
X476772Y101969D02*
Y109843D01*
X351819Y108000D02*
X354181D01*
X353000Y106819D02*
Y109181D01*
X465819Y152000D02*
X468181D01*
X467000Y150819D02*
Y153181D01*
X295472Y309252D02*
X297835D01*
X296654Y308071D02*
Y310433D01*
X295472Y300787D02*
X297835D01*
X296654Y299606D02*
Y301969D01*
X460319Y273500D02*
X462681D01*
X461500Y272319D02*
Y274681D01*
X462819Y202500D02*
X465181D01*
X464000Y201319D02*
Y203681D01*
X442319Y202500D02*
X444681D01*
X443500Y201319D02*
Y203681D01*
X375319Y202500D02*
X377681D01*
X376500Y201319D02*
Y203681D01*
X367319Y202500D02*
X369681D01*
X368500Y201319D02*
Y203681D01*
X300319Y202500D02*
X302681D01*
X301500Y201319D02*
Y203681D01*
X292319Y202500D02*
X294681D01*
X293500Y201319D02*
Y203681D01*
X225319Y202500D02*
X227681D01*
X226500Y201319D02*
Y203681D01*
X217319Y202500D02*
X219681D01*
X218500Y201319D02*
Y203681D01*
X160819Y167000D02*
X163181D01*
X162000Y165819D02*
Y168181D01*
X134319Y221500D02*
X136681D01*
X135500Y220319D02*
Y222681D01*
X154319Y211500D02*
X156681D01*
X155500Y210319D02*
Y212681D01*
X183319Y272500D02*
X185681D01*
X184500Y271319D02*
Y273681D01*
X137319Y194500D02*
X139681D01*
X138500Y193319D02*
Y195681D01*
X137319Y229000D02*
X139681D01*
X138500Y227819D02*
Y230181D01*
X158819Y273500D02*
X161181D01*
X160000Y272319D02*
Y274681D01*
X109819Y209000D02*
X112181D01*
X111000Y207819D02*
Y210181D01*
X109819Y231000D02*
X112181D01*
X111000Y229819D02*
Y232181D01*
X118319Y316500D02*
X120681D01*
X119500Y315319D02*
Y317681D01*
X116319Y313500D02*
X118681D01*
X117500Y312319D02*
Y314681D01*
X116319Y310000D02*
X118681D01*
X117500Y308819D02*
Y311181D01*
X116319Y161000D02*
X118681D01*
X117500Y159819D02*
Y162181D01*
X458819Y185000D02*
X461181D01*
X460000Y183819D02*
Y186181D01*
X436819Y264500D02*
X439181D01*
X438000Y263319D02*
Y265681D01*
X158319Y346000D02*
X160681D01*
X159500Y344819D02*
Y347181D01*
X145319Y315500D02*
X147681D01*
X146500Y314319D02*
Y316681D01*
X141819Y316500D02*
X144181D01*
X143000Y315319D02*
Y317681D01*
X155319Y271500D02*
X157681D01*
X156500Y270319D02*
Y272681D01*
X144319Y267000D02*
X146681D01*
X145500Y265819D02*
Y268181D01*
X108319Y297000D02*
X110681D01*
X109500Y295819D02*
Y298181D01*
X109319Y301000D02*
X111681D01*
X110500Y299819D02*
Y302181D01*
X127319Y332000D02*
X129681D01*
X128500Y330819D02*
Y333181D01*
X141819Y330000D02*
X144181D01*
X143000Y328819D02*
Y331181D01*
X125819Y263000D02*
X128181D01*
X127000Y261819D02*
Y264181D01*
X123319Y266500D02*
X125681D01*
X124500Y265319D02*
Y267681D01*
X148819Y271000D02*
X151181D01*
X150000Y269819D02*
Y272181D01*
X151819Y273500D02*
X154181D01*
X153000Y272319D02*
Y274681D01*
X441929Y253346D02*
X444291D01*
X443110Y252165D02*
Y254528D01*
X367126Y253346D02*
X369488D01*
X368307Y252165D02*
Y254528D01*
X292126Y253346D02*
X294488D01*
X293307Y252165D02*
Y254528D01*
X217126Y253346D02*
X219488D01*
X218307Y252165D02*
Y254528D01*
X217126Y178347D02*
X219488D01*
X218307Y177165D02*
Y179528D01*
X292126Y178347D02*
X294488D01*
X293307Y177165D02*
Y179528D01*
X367126Y178347D02*
X369488D01*
X368307Y177165D02*
Y179528D01*
X442126Y178347D02*
X444488D01*
X443307Y177165D02*
Y179528D01*
M02*
