G04*
G04 #@! TF.GenerationSoftware,Altium Limited,CircuitMaker,2.2.1 (2.2.1.6)*
G04*
G04 Layer_Color=20142*
%FSLAX25Y25*%
%MOIN*%
G70*
G04*
G04 #@! TF.SameCoordinates,0C0BB1EE-0056-4C80-8B96-835DB9A5DFF7*
G04*
G04*
G04 #@! TF.FilePolarity,Negative*
G04*
G01*
G75*
%ADD33R,0.05131X0.05918*%
%ADD34R,0.02217X0.02060*%
%ADD35R,0.04068X0.04068*%
%ADD36R,0.04737X0.04934*%
%ADD37R,0.02060X0.02217*%
%ADD38O,0.05131X0.02965*%
%ADD39R,0.03150X0.02953*%
%ADD40R,0.03950X0.04540*%
G04:AMPARAMS|DCode=41|XSize=18.63mil|YSize=90.68mil|CornerRadius=0mil|HoleSize=0mil|Usage=FLASHONLY|Rotation=135.000|XOffset=0mil|YOffset=0mil|HoleType=Round|Shape=Round|*
%AMOVALD41*
21,1,0.07205,0.01863,0.00000,0.00000,225.0*
1,1,0.01863,0.02547,0.02547*
1,1,0.01863,-0.02547,-0.02547*
%
%ADD41OVALD41*%

G04:AMPARAMS|DCode=42|XSize=18.63mil|YSize=90.68mil|CornerRadius=0mil|HoleSize=0mil|Usage=FLASHONLY|Rotation=225.000|XOffset=0mil|YOffset=0mil|HoleType=Round|Shape=Round|*
%AMOVALD42*
21,1,0.07205,0.01863,0.00000,0.00000,315.0*
1,1,0.01863,-0.02547,0.02547*
1,1,0.01863,0.02547,-0.02547*
%
%ADD42OVALD42*%

G04:AMPARAMS|DCode=43|XSize=18.63mil|YSize=90.68mil|CornerRadius=0mil|HoleSize=0mil|Usage=FLASHONLY|Rotation=225.000|XOffset=0mil|YOffset=0mil|HoleType=Round|Shape=Round|*
%AMOVALD43*
21,1,0.07205,0.01863,0.00000,0.00000,315.0*
1,1,0.01863,-0.02547,0.02547*
1,1,0.01863,0.02547,-0.02547*
%
%ADD43OVALD43*%

%ADD44R,0.01654X0.04409*%
%ADD45R,0.04343X0.04737*%
%ADD46R,0.04343X0.05918*%
%ADD47R,0.05131X0.04737*%
%ADD48C,0.08674*%
%ADD49C,0.16500*%
%ADD50C,0.09800*%
%ADD51C,0.06800*%
%ADD52C,0.04343*%
%ADD53C,0.07800*%
%ADD54R,0.07800X0.07800*%
%ADD55R,0.10800X0.14800*%
%ADD56R,0.06706X0.06706*%
%ADD57C,0.06706*%
%ADD58O,0.05524X0.10249*%
%ADD59C,0.03556*%
%ADD60C,0.03162*%
D33*
X169252Y251366D02*
D03*
Y259634D02*
D03*
X175748D02*
D03*
Y251366D02*
D03*
D34*
X173602Y246000D02*
D03*
X171398D02*
D03*
D35*
X278878Y253346D02*
D03*
X287657D02*
D03*
X353878D02*
D03*
X362657D02*
D03*
X428681D02*
D03*
X437461D02*
D03*
X203878Y178347D02*
D03*
X212657D02*
D03*
X278878D02*
D03*
X287657D02*
D03*
X353878D02*
D03*
X362657D02*
D03*
X428681D02*
D03*
X437461D02*
D03*
X212657Y253346D02*
D03*
X203878D02*
D03*
D36*
X187000Y335547D02*
D03*
Y341453D02*
D03*
D37*
X180315Y335945D02*
D03*
Y333740D02*
D03*
D38*
X165551Y341142D02*
D03*
Y337402D02*
D03*
Y333661D02*
D03*
X175394Y341142D02*
D03*
Y333661D02*
D03*
D39*
X159646Y341043D02*
D03*
Y337303D02*
D03*
X171260Y325295D02*
D03*
Y321555D02*
D03*
X185827Y325295D02*
D03*
Y321555D02*
D03*
D40*
X105413Y334252D02*
D03*
X110728D02*
D03*
X105413Y340945D02*
D03*
X110728D02*
D03*
D41*
X131675Y271678D02*
D03*
X130283Y273070D02*
D03*
X128891Y274462D02*
D03*
X127499Y275854D02*
D03*
X126107Y277246D02*
D03*
X124715Y278638D02*
D03*
X123323Y280030D02*
D03*
X121931Y281422D02*
D03*
X120539Y282814D02*
D03*
X119147Y284206D02*
D03*
X117755Y285598D02*
D03*
X116364Y286990D02*
D03*
X139191Y309818D02*
D03*
X140583Y308426D02*
D03*
X141975Y307034D02*
D03*
X143367Y305642D02*
D03*
X144759Y304250D02*
D03*
X146151Y302858D02*
D03*
X147543Y301466D02*
D03*
X148935Y300074D02*
D03*
X150327Y298682D02*
D03*
X151719Y297290D02*
D03*
X153111Y295898D02*
D03*
X154503Y294506D02*
D03*
D42*
X116364D02*
D03*
D43*
X117755Y295898D02*
D03*
X119147Y297290D02*
D03*
X120539Y298682D02*
D03*
X121931Y300074D02*
D03*
X123323Y301466D02*
D03*
X124715Y302858D02*
D03*
X126107Y304250D02*
D03*
X127499Y305642D02*
D03*
X128891Y307034D02*
D03*
X130283Y308426D02*
D03*
X131675Y309818D02*
D03*
X154503Y286990D02*
D03*
X153111Y285598D02*
D03*
X151719Y284206D02*
D03*
X150327Y282814D02*
D03*
X148935Y281422D02*
D03*
X147543Y280030D02*
D03*
X146151Y278638D02*
D03*
X144759Y277246D02*
D03*
X143367Y275854D02*
D03*
X141975Y274462D02*
D03*
X140583Y273070D02*
D03*
X139191Y271678D02*
D03*
D44*
X148622Y325000D02*
D03*
X147441D02*
D03*
X145472D02*
D03*
X144291D02*
D03*
X136417D02*
D03*
X134449D02*
D03*
X138386D02*
D03*
X140354D02*
D03*
X142323D02*
D03*
X122244D02*
D03*
X123425D02*
D03*
X125394D02*
D03*
X126575D02*
D03*
X132480D02*
D03*
X130512D02*
D03*
X128543D02*
D03*
D45*
X435630Y310630D02*
D03*
X430512D02*
D03*
X435630Y317520D02*
D03*
X430512D02*
D03*
X435630Y299213D02*
D03*
X430512D02*
D03*
X430512Y292323D02*
D03*
X435630D02*
D03*
X285630Y310630D02*
D03*
X280512D02*
D03*
X285630Y317520D02*
D03*
X280512D02*
D03*
X285630Y299213D02*
D03*
X280512D02*
D03*
Y292323D02*
D03*
X285630D02*
D03*
D46*
X436511Y324213D02*
D03*
X429631D02*
D03*
X436511Y285630D02*
D03*
X429631D02*
D03*
X286511Y324213D02*
D03*
X279631D02*
D03*
X286511Y285630D02*
D03*
X279631D02*
D03*
D47*
X163779Y320571D02*
D03*
Y326279D02*
D03*
X178543Y320571D02*
D03*
Y326279D02*
D03*
D48*
X175984Y151575D02*
D03*
X352756Y314961D02*
D03*
X204724Y300394D02*
D03*
X252756Y228150D02*
D03*
X327559D02*
D03*
X390945Y151575D02*
D03*
X105905Y105905D02*
D03*
X476772Y350394D02*
D03*
X105905D02*
D03*
X476772Y105905D02*
D03*
D49*
X433366Y220374D02*
D03*
X358366D02*
D03*
X283366D02*
D03*
X433366Y145374D02*
D03*
X358366D02*
D03*
X283366D02*
D03*
X208366D02*
D03*
Y220374D02*
D03*
D50*
X418366Y230374D02*
D03*
X443366Y240374D02*
D03*
X368366D02*
D03*
X343366Y230374D02*
D03*
X293366Y240374D02*
D03*
X268366Y230374D02*
D03*
X443366Y165374D02*
D03*
X418366Y155374D02*
D03*
X368366Y165374D02*
D03*
X343366Y155374D02*
D03*
X293366Y165374D02*
D03*
X268366Y155374D02*
D03*
X218366Y165374D02*
D03*
X193366Y155374D02*
D03*
Y230374D02*
D03*
X218366Y240374D02*
D03*
D51*
X453366Y220374D02*
D03*
X413366D02*
D03*
X338366D02*
D03*
X378366D02*
D03*
X263366D02*
D03*
X303366D02*
D03*
X413366Y145374D02*
D03*
X453366D02*
D03*
X338366D02*
D03*
X378366D02*
D03*
X263366D02*
D03*
X303366D02*
D03*
X188366D02*
D03*
X228366D02*
D03*
Y220374D02*
D03*
X188366D02*
D03*
D52*
X169091Y176295D02*
D03*
Y188106D02*
D03*
X211953Y347390D02*
D03*
X200142D02*
D03*
D53*
X120394Y113583D02*
D03*
X130394D02*
D03*
X140394D02*
D03*
D54*
X150394D02*
D03*
D55*
X371063Y314961D02*
D03*
X420669D02*
D03*
X221063D02*
D03*
X270669D02*
D03*
D56*
X386024Y342520D02*
D03*
X236024D02*
D03*
D57*
X405709D02*
D03*
X386024Y285433D02*
D03*
X395866D02*
D03*
X405709D02*
D03*
X255709Y342520D02*
D03*
X236024Y285433D02*
D03*
X245866D02*
D03*
X255709D02*
D03*
D58*
X152461Y345768D02*
D03*
X118405D02*
D03*
X152461Y329232D02*
D03*
X118405D02*
D03*
D59*
X146850Y331201D02*
D03*
X124016D02*
D03*
D60*
X353000Y108000D02*
D03*
X467000Y152000D02*
D03*
X296654Y309252D02*
D03*
Y300787D02*
D03*
X461500Y273500D02*
D03*
X464000Y202500D02*
D03*
X443500D02*
D03*
X376500D02*
D03*
X368500D02*
D03*
X301500D02*
D03*
X293500D02*
D03*
X226500D02*
D03*
X218500D02*
D03*
X162000Y167000D02*
D03*
X135500Y221500D02*
D03*
X155500Y211500D02*
D03*
X184500Y272500D02*
D03*
X138500Y194500D02*
D03*
Y229000D02*
D03*
X160000Y273500D02*
D03*
X111000Y209000D02*
D03*
Y231000D02*
D03*
X119500Y316500D02*
D03*
X117500Y313500D02*
D03*
Y310000D02*
D03*
Y161000D02*
D03*
X460000Y185000D02*
D03*
X438000Y264500D02*
D03*
X159500Y346000D02*
D03*
X146500Y315500D02*
D03*
X143000Y316500D02*
D03*
X156500Y271500D02*
D03*
X145500Y267000D02*
D03*
X109500Y297000D02*
D03*
X110500Y301000D02*
D03*
X128500Y332000D02*
D03*
X143000Y330000D02*
D03*
X127000Y263000D02*
D03*
X124500Y266500D02*
D03*
X150000Y271000D02*
D03*
X153000Y273500D02*
D03*
X443110Y253346D02*
D03*
X368307D02*
D03*
X293307D02*
D03*
X218307D02*
D03*
Y178347D02*
D03*
X293307D02*
D03*
X368307D02*
D03*
X443307D02*
D03*
M02*
