G04*
G04 #@! TF.GenerationSoftware,Altium Limited,CircuitMaker,2.2.1 (2.2.1.6)*
G04*
G04 Layer_Physical_Order=1*
G04 Layer_Color=25308*
%FSLAX25Y25*%
%MOIN*%
G70*
G04*
G04 #@! TF.SameCoordinates,0C0BB1EE-0056-4C80-8B96-835DB9A5DFF7*
G04*
G04*
G04 #@! TF.FilePolarity,Positive*
G04*
G01*
G75*
%ADD10C,0.01000*%
%ADD18R,0.04331X0.05118*%
%ADD19R,0.01417X0.01260*%
%ADD20R,0.03268X0.03268*%
%ADD21R,0.03937X0.04134*%
%ADD22R,0.01260X0.01417*%
%ADD23O,0.04331X0.02165*%
%ADD24R,0.02756X0.02559*%
%ADD25R,0.03150X0.03740*%
G04:AMPARAMS|DCode=26|XSize=10.63mil|YSize=82.68mil|CornerRadius=0mil|HoleSize=0mil|Usage=FLASHONLY|Rotation=135.000|XOffset=0mil|YOffset=0mil|HoleType=Round|Shape=Round|*
%AMOVALD26*
21,1,0.07205,0.01063,0.00000,0.00000,225.0*
1,1,0.01063,0.02547,0.02547*
1,1,0.01063,-0.02547,-0.02547*
%
%ADD26OVALD26*%

G04:AMPARAMS|DCode=27|XSize=10.63mil|YSize=82.68mil|CornerRadius=0mil|HoleSize=0mil|Usage=FLASHONLY|Rotation=225.000|XOffset=0mil|YOffset=0mil|HoleType=Round|Shape=Round|*
%AMOVALD27*
21,1,0.07205,0.01063,0.00000,0.00000,315.0*
1,1,0.01063,-0.02547,0.02547*
1,1,0.01063,0.02547,-0.02547*
%
%ADD27OVALD27*%

G04:AMPARAMS|DCode=28|XSize=10.63mil|YSize=82.68mil|CornerRadius=0mil|HoleSize=0mil|Usage=FLASHONLY|Rotation=225.000|XOffset=0mil|YOffset=0mil|HoleType=Round|Shape=Round|*
%AMOVALD28*
21,1,0.07205,0.01063,0.00000,0.00000,315.0*
1,1,0.01063,-0.02547,0.02547*
1,1,0.01063,0.02547,-0.02547*
%
%ADD28OVALD28*%

%ADD29R,0.01181X0.03937*%
%ADD30R,0.03543X0.03937*%
%ADD31R,0.03543X0.05118*%
%ADD32R,0.04331X0.03937*%
%ADD61C,0.07874*%
%ADD62C,0.15700*%
%ADD63C,0.09000*%
%ADD64C,0.06000*%
%ADD65C,0.03543*%
%ADD66C,0.07000*%
%ADD67R,0.07000X0.07000*%
%ADD68R,0.10000X0.14000*%
%ADD69R,0.05905X0.05905*%
%ADD70C,0.05905*%
%ADD71O,0.04724X0.09449*%
%ADD72C,0.02756*%
%ADD73C,0.02362*%
D10*
X353000Y108000D02*
X423000D01*
X467000Y152000D01*
X285630Y299213D02*
X295079D01*
X296654Y300787D01*
X296555Y321555D02*
X322500Y347500D01*
X285630Y310630D02*
X296555Y321555D01*
X296654Y321457D01*
Y309252D02*
Y321457D01*
X155413Y326279D02*
X163779D01*
X152461Y329232D02*
X155413Y326279D01*
X138500Y194500D02*
Y195000D01*
X118405Y345768D02*
X152461D01*
X435630Y299213D02*
X461500Y273342D01*
X322500Y347500D02*
X424000D01*
X461500Y310000D01*
Y284760D02*
Y310000D01*
Y273500D02*
Y284760D01*
Y273342D02*
Y273500D01*
X435630Y310630D02*
X461500Y284760D01*
Y205000D02*
Y273342D01*
Y205000D02*
X464000Y202500D01*
X376500D02*
X443500D01*
X301500D02*
X368500D01*
X226500D02*
X293500D01*
X164500D02*
X218500D01*
X155500Y211500D02*
X164500Y202500D01*
X140394Y108606D02*
Y113583D01*
Y108606D02*
X143000Y106000D01*
X155000D01*
X162000Y113000D01*
Y167000D01*
X155500Y173500D02*
X162000Y167000D01*
X155500Y173500D02*
Y211500D01*
X145500Y231500D02*
Y262000D01*
X135500Y221500D02*
X145500Y231500D01*
Y221500D02*
Y231500D01*
Y262000D02*
Y267000D01*
Y221500D02*
X155500Y211500D01*
X127000Y263000D02*
X135000Y255000D01*
X138500D01*
X145500Y262000D01*
X168500Y244000D02*
X169500Y243000D01*
X145500Y267000D02*
X168500Y244000D01*
Y250614D02*
X169252Y251366D01*
X168500Y244000D02*
Y250614D01*
X169500Y243000D02*
X177500D01*
X184500Y250000D01*
Y272500D01*
X175748Y259634D02*
Y261752D01*
X168000Y269500D02*
X175748Y261752D01*
X158500Y269500D02*
X168000D01*
X156500Y271500D02*
X158500Y269500D01*
X183500Y273500D02*
X184500Y272500D01*
X160000Y273500D02*
X183500D01*
X361102Y305000D02*
X371063Y314961D01*
X275500Y305000D02*
X361102D01*
X274000Y306500D02*
X275500Y305000D01*
X274000Y306500D02*
Y311630D01*
X270669Y314961D02*
X274000Y311630D01*
X220602Y314500D02*
X221063Y314961D01*
X187000Y314500D02*
X220602D01*
X123500Y140476D02*
Y209500D01*
Y244000D01*
Y209500D02*
X138500Y194500D01*
X123500Y244000D02*
X138500Y229000D01*
X122000Y115189D02*
Y267571D01*
X120500Y120500D02*
Y268855D01*
X119000Y162500D02*
Y270139D01*
X117500Y215500D02*
Y270000D01*
X116000Y236000D02*
Y269000D01*
X123500Y140476D02*
X150394Y113583D01*
X123500Y244000D02*
Y265500D01*
X124500Y266500D01*
X105413Y331087D02*
Y334252D01*
Y331087D02*
X107268Y329232D01*
X118405D01*
X105413Y334252D02*
Y340945D01*
X146500Y315500D02*
X147500Y314500D01*
X187000D01*
X192000Y319500D01*
Y345000D01*
X188500Y348500D02*
X192000Y345000D01*
X155193Y348500D02*
X188500D01*
X152461Y345768D02*
X155193Y348500D01*
X152461Y330118D02*
Y345768D01*
Y329232D02*
Y330118D01*
X143000Y316500D02*
X145000Y318500D01*
X148000D01*
X150500Y316000D01*
X186000D01*
X190500Y320500D01*
Y323500D01*
X159641Y273500D02*
X160000D01*
X111000Y209000D02*
X117500Y215500D01*
X111000Y231000D02*
X116000Y236000D01*
X107000Y278000D02*
X116000Y269000D01*
X111500Y276000D02*
X117500Y270000D01*
X111500Y276000D02*
Y282126D01*
X116364Y286990D01*
X107000Y278000D02*
Y301500D01*
X109500Y304000D01*
X112437D01*
X119147Y297290D01*
X117500Y161000D02*
X119000Y162500D01*
X119500Y316500D02*
X121500Y314500D01*
Y308857D02*
Y314500D01*
Y308857D02*
X126107Y304250D01*
X117500Y313500D02*
X120000Y311000D01*
Y307573D02*
Y311000D01*
Y307573D02*
X124715Y302858D01*
X117500Y307289D02*
Y310000D01*
Y307289D02*
X123323Y301466D01*
X132480Y322480D02*
Y325000D01*
X130500Y320500D02*
X132480Y322480D01*
X116500Y320500D02*
X130500D01*
X113500Y317500D02*
X116500Y320500D01*
X113500Y305721D02*
Y317500D01*
Y305721D02*
X120539Y298682D01*
X132500Y319000D02*
X135000Y321500D01*
X117500Y319000D02*
X132500D01*
X115000Y316500D02*
X117500Y319000D01*
X115000Y307005D02*
Y316500D01*
Y307005D02*
X121931Y300074D01*
X119000Y270139D02*
X126107Y277246D01*
X125811Y109000D02*
X130394Y113583D01*
X118000Y109000D02*
X125811D01*
X115500Y111500D02*
X118000Y109000D01*
X115500Y111500D02*
Y115500D01*
X120500Y120500D01*
Y268855D02*
X127499Y275854D01*
X120394Y113583D02*
X122000Y115189D01*
Y267571D02*
X128891Y274462D01*
X143367Y305642D02*
X149725Y312000D01*
X171000D01*
X190500Y292500D01*
X144759Y304250D02*
X151009Y310500D01*
X170000D01*
X189500Y291000D01*
X146151Y302858D02*
X152293Y309000D01*
X169000D01*
X188500Y289500D01*
X147543Y301466D02*
X153577Y307500D01*
X168000D01*
X187500Y288000D01*
X148935Y300074D02*
X154861Y306000D01*
X167000D01*
X186500Y286500D01*
X150327Y298682D02*
X156145Y304500D01*
X166000D01*
X185500Y285000D01*
X190500Y292500D02*
X213500D01*
X218000Y288000D01*
X225500D01*
X189500Y291000D02*
X212500D01*
X228000Y275500D01*
X233000D01*
X236024Y278524D01*
Y285433D01*
X188500Y289500D02*
X211500D01*
X230500Y270500D01*
X249500D01*
X255709Y276709D01*
Y285433D01*
X187500Y288000D02*
X210500D01*
X229500Y269000D01*
X186500Y286500D02*
X209500D01*
X228500Y267500D01*
X185500Y285000D02*
X208500D01*
X227500Y266000D01*
X395000D01*
X229500Y269000D02*
X357000D01*
X405709Y317709D01*
X228500Y267500D02*
X377000D01*
X386024Y276524D01*
Y285433D01*
X395000Y266000D02*
X405709Y276709D01*
Y285433D01*
X151719Y297290D02*
X157429Y303000D01*
X165000D01*
X153111Y295898D02*
X158712Y301500D01*
X164000D01*
X165000Y303000D02*
X184500Y283500D01*
X207500D01*
X226500Y264500D01*
X164000Y301500D02*
X183500Y282000D01*
X206500D01*
X225500Y263000D01*
X226500Y264500D02*
X433500D01*
X436500Y267500D01*
X441500D01*
X460000Y249000D01*
Y185000D02*
Y249000D01*
X225500Y263000D02*
X436500D01*
X438000Y264500D01*
X182500Y280500D02*
X205500D01*
X163000Y300000D02*
X182500Y280500D01*
X159996Y300000D02*
X163000D01*
X154503Y294506D02*
X159996Y300000D01*
X225500Y288000D02*
X255709Y318209D01*
Y342520D01*
X405709Y317709D02*
Y342520D01*
X386024Y285433D02*
Y295524D01*
X419500Y329000D01*
X436000D01*
X436511Y328489D01*
Y324213D02*
Y328489D01*
X420669Y314961D02*
X429631Y323922D01*
Y324213D01*
X435630Y323331D02*
X436511Y324213D01*
X435630Y317520D02*
Y323331D01*
X430512Y310630D02*
Y317520D01*
X420669Y294591D02*
X429631Y285630D01*
X420669Y294591D02*
Y314961D01*
X431881Y281000D02*
X436511Y285630D01*
X410142Y281000D02*
X431881D01*
X405709Y285433D02*
X410142Y281000D01*
X236024Y285433D02*
Y296024D01*
X269000Y329000D01*
X285500D01*
X286511Y327989D01*
Y324213D02*
Y327989D01*
X270669Y314961D02*
Y315251D01*
X279631Y324213D01*
X285630Y323331D02*
X286511Y324213D01*
X285630Y317520D02*
Y323331D01*
X280512Y310630D02*
Y317520D01*
X270669Y294591D02*
Y314961D01*
Y294591D02*
X279631Y285630D01*
X281881Y281000D02*
X286511Y285630D01*
X260142Y281000D02*
X281881D01*
X255709Y285433D02*
X260142Y281000D01*
X430512Y299213D02*
X430512Y299213D01*
Y292323D02*
Y299213D01*
X435630Y286511D02*
X436511Y285630D01*
X435630Y286511D02*
Y292323D01*
X280512D02*
Y299213D01*
X285630Y286511D02*
X286511Y285630D01*
X285630Y286511D02*
Y292323D01*
X442000Y261500D02*
X447500Y256000D01*
Y244508D02*
Y256000D01*
X443366Y240374D02*
X447500Y244508D01*
X224500Y261500D02*
X442000D01*
X205500Y280500D02*
X224500Y261500D01*
X154503Y286990D02*
X162493Y279000D01*
X204500D01*
X223500Y260000D01*
X369000D01*
X373000Y256000D01*
Y245008D02*
Y256000D01*
X368366Y240374D02*
X373000Y245008D01*
X161209Y277500D02*
X203500D01*
X222500Y258500D01*
X293500D01*
X298000Y254000D01*
Y245008D02*
Y254000D01*
X293366Y240374D02*
X298000Y245008D01*
X153111Y285598D02*
X161209Y277500D01*
X202500Y276000D02*
X222500Y256000D01*
X159925Y276000D02*
X202500D01*
X151719Y284206D02*
X159925Y276000D01*
X222500Y244508D02*
Y256000D01*
X218366Y240374D02*
X222500Y244508D01*
X443366Y240374D02*
X447500Y236240D01*
Y169508D02*
Y236240D01*
X443366Y165374D02*
X447500Y169508D01*
X368366Y240374D02*
X372500Y236240D01*
Y169508D02*
Y236240D01*
X368366Y165374D02*
X372500Y169508D01*
X293366Y240374D02*
X297500Y236240D01*
Y169508D02*
Y236240D01*
X293366Y165374D02*
X297500Y169508D01*
X218366Y240374D02*
X222500Y236240D01*
Y169508D02*
Y236240D01*
X218366Y165374D02*
X222500Y169508D01*
X437461Y253346D02*
X443110D01*
X418366Y243032D02*
X428681Y253346D01*
X418366Y230374D02*
Y243032D01*
X212657Y253346D02*
X218307D01*
X287657D02*
X293307D01*
X362657D02*
X368307D01*
X343366Y242835D02*
X353878Y253346D01*
X343366Y230374D02*
Y242835D01*
X268366D02*
X278878Y253346D01*
X268366Y230374D02*
Y242835D01*
X193366D02*
X203878Y253346D01*
X193366Y230374D02*
Y242835D01*
X212657Y178347D02*
X218307D01*
X287657D02*
X293307D01*
X437461D02*
X443307D01*
X362657D02*
X368307D01*
X418366Y168032D02*
X428681Y178347D01*
X418366Y155374D02*
Y168032D01*
X343366Y167835D02*
X353878Y178347D01*
X343366Y155374D02*
Y167835D01*
X268366D02*
X278878Y178347D01*
X268366Y155374D02*
Y167835D01*
X193366D02*
X203878Y178347D01*
X193366Y155374D02*
Y167835D01*
X185827Y321555D02*
X188555D01*
X190500Y323500D01*
Y344000D01*
X189500Y345000D02*
X190500Y344000D01*
X179252Y345000D02*
X189500D01*
X175394Y341142D02*
X179252Y345000D01*
X183000Y331547D02*
Y335000D01*
Y331500D02*
Y331547D01*
X187000Y335547D01*
X186689Y341142D02*
X187000Y341453D01*
X175394Y341142D02*
X186689D01*
X159500Y341189D02*
X159646Y341043D01*
X159500Y341189D02*
Y346000D01*
X152461Y329232D02*
X153728Y330500D01*
X182000D01*
X183000Y331500D01*
X182055Y335945D02*
X183000Y335000D01*
X180315Y335945D02*
X182055D01*
X180236Y333661D02*
X180315Y333740D01*
X175394Y333661D02*
X180236D01*
X165551D02*
X168661D01*
X170000Y335000D01*
Y340000D01*
X168858Y341142D02*
X170000Y340000D01*
X165551Y341142D02*
X168858D01*
X152461Y330118D02*
X159646Y337303D01*
X165453D02*
X165551Y337402D01*
X159646Y337303D02*
X165453D01*
Y341043D02*
X165551Y341142D01*
X159646Y341043D02*
X165453D01*
X163779Y320571D02*
X170276D01*
X171260Y321555D01*
X177559D02*
X178543Y320571D01*
X171260Y321555D02*
X177559D01*
X178543Y320571D02*
X179528Y321555D01*
X185827D01*
X178543Y325295D02*
X179035Y325787D01*
X179528Y325295D01*
X171260D02*
X178543D01*
X179528D02*
X185827D01*
X163779Y326279D02*
X164764Y325295D01*
X171260D01*
X148622Y325000D02*
X152461Y328839D01*
Y329232D01*
X175748Y259634D02*
X180500Y254882D01*
Y248500D02*
Y254882D01*
X178000Y246000D02*
X180500Y248500D01*
X173602Y246000D02*
X178000D01*
X169252Y248146D02*
X171398Y246000D01*
X169252Y248146D02*
Y251366D01*
X143000Y313626D02*
Y316500D01*
X139191Y309818D02*
X143000Y313626D01*
X146500Y314342D02*
Y315500D01*
X140583Y308426D02*
X146500Y314342D01*
X150327Y282814D02*
X159641Y273500D01*
X156500Y271500D02*
Y273857D01*
X148935Y281422D02*
X156500Y273857D01*
X153000Y273500D02*
Y274573D01*
X147543Y280030D02*
X153000Y274573D01*
X150000Y271000D02*
Y272005D01*
X144759Y277246D02*
X150000Y272005D01*
X156804Y259634D02*
X169252D01*
X141975Y274462D02*
X156804Y259634D01*
X112654Y301000D02*
X117755Y295898D01*
X110500Y301000D02*
X112654D01*
X109500Y297000D02*
X110500Y298000D01*
X112870D01*
X116364Y294506D01*
X143870Y267000D02*
X145500D01*
X139191Y271678D02*
X143870Y267000D01*
X127000Y263000D02*
Y267004D01*
X131675Y271678D01*
X124500Y266500D02*
Y267287D01*
X130283Y273070D01*
X133000Y328500D02*
X136000D01*
X143000Y330000D02*
X143500D01*
X145472Y328028D01*
Y325000D02*
Y328028D01*
X126575Y330075D02*
X128500Y332000D01*
X126575Y325000D02*
Y330075D01*
X116500Y335500D02*
X130000D01*
X132000Y333500D01*
Y331000D02*
Y333500D01*
X128543Y327543D02*
X132000Y331000D01*
X128543Y325000D02*
Y327543D01*
X115000Y341000D02*
X119000Y337000D01*
X110728Y340945D02*
X110784Y341000D01*
X115000D01*
X119000Y337000D02*
X133500D01*
X140354Y330146D01*
Y325000D02*
Y330146D01*
X110728Y334252D02*
X110980Y334000D01*
X115000D01*
X116500Y335500D01*
X147441Y325000D02*
Y327441D01*
X148500Y328500D01*
X148622Y328378D01*
Y325000D02*
Y328378D01*
X122500Y328500D02*
X123425Y327575D01*
Y325000D02*
Y327575D01*
X122244Y325394D02*
Y328244D01*
Y325000D02*
Y325394D01*
Y328244D02*
X122500Y328500D01*
X118405Y329232D02*
X122244Y325394D01*
X136000Y328500D02*
X136417Y328083D01*
Y325000D02*
Y328083D01*
X132480Y327980D02*
X133000Y328500D01*
X132480Y325000D02*
Y327980D01*
X135000Y321500D02*
X138000D01*
X138386Y321886D01*
Y325000D01*
X134449Y322051D02*
X135000Y321500D01*
X134449Y322051D02*
Y325000D01*
D18*
X169252Y251366D02*
D03*
Y259634D02*
D03*
X175748D02*
D03*
Y251366D02*
D03*
D19*
X173602Y246000D02*
D03*
X171398D02*
D03*
D20*
X278878Y253346D02*
D03*
X287657D02*
D03*
X353878D02*
D03*
X362657D02*
D03*
X428681D02*
D03*
X437461D02*
D03*
X203878Y178347D02*
D03*
X212657D02*
D03*
X278878D02*
D03*
X287657D02*
D03*
X353878D02*
D03*
X362657D02*
D03*
X428681D02*
D03*
X437461D02*
D03*
X212657Y253346D02*
D03*
X203878D02*
D03*
D21*
X187000Y335547D02*
D03*
Y341453D02*
D03*
D22*
X180315Y335945D02*
D03*
Y333740D02*
D03*
D23*
X165551Y341142D02*
D03*
Y337402D02*
D03*
Y333661D02*
D03*
X175394Y341142D02*
D03*
Y333661D02*
D03*
D24*
X159646Y341043D02*
D03*
Y337303D02*
D03*
X171260Y325295D02*
D03*
Y321555D02*
D03*
X185827Y325295D02*
D03*
Y321555D02*
D03*
D25*
X105413Y334252D02*
D03*
X110728D02*
D03*
X105413Y340945D02*
D03*
X110728D02*
D03*
D26*
X131675Y271678D02*
D03*
X130283Y273070D02*
D03*
X128891Y274462D02*
D03*
X127499Y275854D02*
D03*
X126107Y277246D02*
D03*
X124715Y278638D02*
D03*
X123323Y280030D02*
D03*
X121931Y281422D02*
D03*
X120539Y282814D02*
D03*
X119147Y284206D02*
D03*
X117755Y285598D02*
D03*
X116364Y286990D02*
D03*
X139191Y309818D02*
D03*
X140583Y308426D02*
D03*
X141975Y307034D02*
D03*
X143367Y305642D02*
D03*
X144759Y304250D02*
D03*
X146151Y302858D02*
D03*
X147543Y301466D02*
D03*
X148935Y300074D02*
D03*
X150327Y298682D02*
D03*
X151719Y297290D02*
D03*
X153111Y295898D02*
D03*
X154503Y294506D02*
D03*
D27*
X116364D02*
D03*
D28*
X117755Y295898D02*
D03*
X119147Y297290D02*
D03*
X120539Y298682D02*
D03*
X121931Y300074D02*
D03*
X123323Y301466D02*
D03*
X124715Y302858D02*
D03*
X126107Y304250D02*
D03*
X127499Y305642D02*
D03*
X128891Y307034D02*
D03*
X130283Y308426D02*
D03*
X131675Y309818D02*
D03*
X154503Y286990D02*
D03*
X153111Y285598D02*
D03*
X151719Y284206D02*
D03*
X150327Y282814D02*
D03*
X148935Y281422D02*
D03*
X147543Y280030D02*
D03*
X146151Y278638D02*
D03*
X144759Y277246D02*
D03*
X143367Y275854D02*
D03*
X141975Y274462D02*
D03*
X140583Y273070D02*
D03*
X139191Y271678D02*
D03*
D29*
X148622Y325000D02*
D03*
X147441D02*
D03*
X145472D02*
D03*
X144291D02*
D03*
X136417D02*
D03*
X134449D02*
D03*
X138386D02*
D03*
X140354D02*
D03*
X142323D02*
D03*
X122244D02*
D03*
X123425D02*
D03*
X125394D02*
D03*
X126575D02*
D03*
X132480D02*
D03*
X130512D02*
D03*
X128543D02*
D03*
D30*
X435630Y310630D02*
D03*
X430512D02*
D03*
X435630Y317520D02*
D03*
X430512D02*
D03*
X435630Y299213D02*
D03*
X430512D02*
D03*
X430512Y292323D02*
D03*
X435630D02*
D03*
X285630Y310630D02*
D03*
X280512D02*
D03*
X285630Y317520D02*
D03*
X280512D02*
D03*
X285630Y299213D02*
D03*
X280512D02*
D03*
Y292323D02*
D03*
X285630D02*
D03*
D31*
X436511Y324213D02*
D03*
X429631D02*
D03*
X436511Y285630D02*
D03*
X429631D02*
D03*
X286511Y324213D02*
D03*
X279631D02*
D03*
X286511Y285630D02*
D03*
X279631D02*
D03*
D32*
X163779Y320571D02*
D03*
Y326279D02*
D03*
X178543Y320571D02*
D03*
Y326279D02*
D03*
D61*
X175984Y151575D02*
D03*
X352756Y314961D02*
D03*
X204724Y300394D02*
D03*
X252756Y228150D02*
D03*
X327559D02*
D03*
X390945Y151575D02*
D03*
X105905Y105905D02*
D03*
X476772Y350394D02*
D03*
X105905D02*
D03*
X476772Y105905D02*
D03*
D62*
X433366Y220374D02*
D03*
X358366D02*
D03*
X283366D02*
D03*
X433366Y145374D02*
D03*
X358366D02*
D03*
X283366D02*
D03*
X208366D02*
D03*
Y220374D02*
D03*
D63*
X418366Y230374D02*
D03*
X443366Y240374D02*
D03*
X368366D02*
D03*
X343366Y230374D02*
D03*
X293366Y240374D02*
D03*
X268366Y230374D02*
D03*
X443366Y165374D02*
D03*
X418366Y155374D02*
D03*
X368366Y165374D02*
D03*
X343366Y155374D02*
D03*
X293366Y165374D02*
D03*
X268366Y155374D02*
D03*
X218366Y165374D02*
D03*
X193366Y155374D02*
D03*
Y230374D02*
D03*
X218366Y240374D02*
D03*
D64*
X453366Y220374D02*
D03*
X413366D02*
D03*
X338366D02*
D03*
X378366D02*
D03*
X263366D02*
D03*
X303366D02*
D03*
X413366Y145374D02*
D03*
X453366D02*
D03*
X338366D02*
D03*
X378366D02*
D03*
X263366D02*
D03*
X303366D02*
D03*
X188366D02*
D03*
X228366D02*
D03*
Y220374D02*
D03*
X188366D02*
D03*
D65*
X169091Y176295D02*
D03*
Y188106D02*
D03*
X211953Y347390D02*
D03*
X200142D02*
D03*
D66*
X120394Y113583D02*
D03*
X130394D02*
D03*
X140394D02*
D03*
D67*
X150394D02*
D03*
D68*
X371063Y314961D02*
D03*
X420669D02*
D03*
X221063D02*
D03*
X270669D02*
D03*
D69*
X386024Y342520D02*
D03*
X236024D02*
D03*
D70*
X405709D02*
D03*
X386024Y285433D02*
D03*
X395866D02*
D03*
X405709D02*
D03*
X255709Y342520D02*
D03*
X236024Y285433D02*
D03*
X245866D02*
D03*
X255709D02*
D03*
D71*
X152461Y345768D02*
D03*
X118405D02*
D03*
X152461Y329232D02*
D03*
X118405D02*
D03*
D72*
X146850Y331201D02*
D03*
X124016D02*
D03*
D73*
X353000Y108000D02*
D03*
X467000Y152000D02*
D03*
X296654Y309252D02*
D03*
Y300787D02*
D03*
X461500Y273500D02*
D03*
X464000Y202500D02*
D03*
X443500D02*
D03*
X376500D02*
D03*
X368500D02*
D03*
X301500D02*
D03*
X293500D02*
D03*
X226500D02*
D03*
X218500D02*
D03*
X162000Y167000D02*
D03*
X135500Y221500D02*
D03*
X155500Y211500D02*
D03*
X184500Y272500D02*
D03*
X138500Y194500D02*
D03*
Y229000D02*
D03*
X160000Y273500D02*
D03*
X111000Y209000D02*
D03*
Y231000D02*
D03*
X119500Y316500D02*
D03*
X117500Y313500D02*
D03*
Y310000D02*
D03*
Y161000D02*
D03*
X460000Y185000D02*
D03*
X438000Y264500D02*
D03*
X159500Y346000D02*
D03*
X146500Y315500D02*
D03*
X143000Y316500D02*
D03*
X156500Y271500D02*
D03*
X145500Y267000D02*
D03*
X109500Y297000D02*
D03*
X110500Y301000D02*
D03*
X128500Y332000D02*
D03*
X143000Y330000D02*
D03*
X127000Y263000D02*
D03*
X124500Y266500D02*
D03*
X150000Y271000D02*
D03*
X153000Y273500D02*
D03*
X443110Y253346D02*
D03*
X368307D02*
D03*
X293307D02*
D03*
X218307D02*
D03*
Y178347D02*
D03*
X293307D02*
D03*
X368307D02*
D03*
X443307D02*
D03*
M02*
