G04*
G04 #@! TF.GenerationSoftware,Altium Limited,CircuitMaker,2.3.0 (2.3.0.3)*
G04*
G04 Layer_Physical_Order=2*
G04 Layer_Color=11436288*
%FSLAX25Y25*%
%MOIN*%
G70*
G04*
G04 #@! TF.SameCoordinates,7A92FE71-458D-4544-954B-740947ED0FFD*
G04*
G04*
G04 #@! TF.FilePolarity,Positive*
G04*
G01*
G75*
%ADD10C,0.01000*%
%ADD31R,0.03543X0.05118*%
%ADD61C,0.07874*%
%ADD62C,0.15700*%
%ADD63C,0.09000*%
%ADD64C,0.06000*%
%ADD65C,0.03543*%
%ADD66C,0.07000*%
%ADD67R,0.07000X0.07000*%
%ADD68R,0.10000X0.14000*%
%ADD69R,0.05905X0.05905*%
%ADD70C,0.05905*%
%ADD71O,0.04724X0.09449*%
%ADD72C,0.02756*%
%ADD73C,0.02362*%
%ADD74R,0.07087X0.11811*%
%ADD75R,0.05787X0.02913*%
%ADD76R,0.05905X0.02756*%
%ADD77R,0.03150X0.03543*%
G04:AMPARAMS|DCode=78|XSize=35.43mil|YSize=31.5mil|CornerRadius=0mil|HoleSize=0mil|Usage=FLASHONLY|Rotation=45.000|XOffset=0mil|YOffset=0mil|HoleType=Round|Shape=Rectangle|*
%AMROTATEDRECTD78*
4,1,4,-0.00139,-0.02366,-0.02366,-0.00139,0.00139,0.02366,0.02366,0.00139,-0.00139,-0.02366,0.0*
%
%ADD78ROTATEDRECTD78*%

G04:AMPARAMS|DCode=79|XSize=66.93mil|YSize=59.05mil|CornerRadius=0mil|HoleSize=0mil|Usage=FLASHONLY|Rotation=225.000|XOffset=0mil|YOffset=0mil|HoleType=Round|Shape=Rectangle|*
%AMROTATEDRECTD79*
4,1,4,0.00278,0.04454,0.04454,0.00278,-0.00278,-0.04454,-0.04454,-0.00278,0.00278,0.04454,0.0*
%
%ADD79ROTATEDRECTD79*%

%ADD80R,0.06299X0.10236*%
%ADD81R,0.05118X0.07087*%
%ADD82R,0.04213X0.07480*%
G04:AMPARAMS|DCode=83|XSize=74.8mil|YSize=42.13mil|CornerRadius=0mil|HoleSize=0mil|Usage=FLASHONLY|Rotation=270.000|XOffset=0mil|YOffset=0mil|HoleType=Round|Shape=Octagon|*
%AMOCTAGOND83*
4,1,8,-0.01053,-0.03740,0.01053,-0.03740,0.02106,-0.02687,0.02106,0.02687,0.01053,0.03740,-0.01053,0.03740,-0.02106,0.02687,-0.02106,-0.02687,-0.01053,-0.03740,0.0*
%
%ADD83OCTAGOND83*%

%ADD84R,0.02756X0.05905*%
%ADD85R,0.04331X0.08661*%
%ADD86R,0.04724X0.03937*%
%ADD87R,0.11811X0.06693*%
G04:AMPARAMS|DCode=88|XSize=12.6mil|YSize=14.17mil|CornerRadius=0mil|HoleSize=0mil|Usage=FLASHONLY|Rotation=225.000|XOffset=0mil|YOffset=0mil|HoleType=Round|Shape=Rectangle|*
%AMROTATEDRECTD88*
4,1,4,-0.00056,0.00946,0.00946,-0.00056,0.00056,-0.00946,-0.00946,0.00056,-0.00056,0.00946,0.0*
%
%ADD88ROTATEDRECTD88*%

G04:AMPARAMS|DCode=89|XSize=35.43mil|YSize=31.5mil|CornerRadius=0mil|HoleSize=0mil|Usage=FLASHONLY|Rotation=315.000|XOffset=0mil|YOffset=0mil|HoleType=Round|Shape=Rectangle|*
%AMROTATEDRECTD89*
4,1,4,-0.02366,0.00139,-0.00139,0.02366,0.02366,-0.00139,0.00139,-0.02366,-0.02366,0.00139,0.0*
%
%ADD89ROTATEDRECTD89*%

D10*
X297441Y107677D02*
X353000D01*
X467000Y152000D02*
Y306000D01*
Y151854D02*
Y152000D01*
X296654Y300787D02*
Y309252D01*
X270000Y347000D02*
X283614D01*
X218000D02*
X270000D01*
X419000Y354000D02*
X467000Y306000D01*
X277000Y354000D02*
X419000D01*
X270000Y347000D02*
X277000Y354000D01*
X318500Y297496D02*
X326004Y305000D01*
X362121D01*
X366500Y300621D01*
Y283000D02*
Y300621D01*
Y283000D02*
X376000Y273500D01*
X461500D01*
X443500Y202500D02*
X464000D01*
X368500D02*
X376500D01*
X293500D02*
X301500D01*
X226500D02*
X227000D01*
X218500D02*
X226500D01*
X162000Y173142D02*
X162201Y173343D01*
X162000Y167000D02*
Y173142D01*
X129701Y221500D02*
X135500D01*
X147000Y211500D02*
X155500D01*
X184500Y272500D02*
X193000D01*
X180500Y274000D02*
X186000Y279500D01*
X180500Y270500D02*
Y274000D01*
X177000Y267000D02*
X180500Y270500D01*
X156500Y267000D02*
X177000D01*
X138500Y229000D02*
X147561Y238061D01*
X178439D01*
X192053Y251675D01*
Y259304D01*
X160000Y273500D02*
Y277500D01*
X143000Y294500D02*
X160000Y277500D01*
X143000Y294500D02*
Y316500D01*
X128750Y291000D02*
X134250Y285500D01*
X112500Y291000D02*
X128750D01*
X159500Y268500D02*
X168440D01*
X176000D01*
X179000Y271500D01*
Y283000D01*
X146500Y315500D02*
X179000Y283000D01*
X110000Y287500D02*
X112500Y290000D01*
X105500Y287500D02*
X110000D01*
X107579Y291000D02*
Y295079D01*
X109500Y297000D01*
X112500Y290000D02*
Y291000D01*
X104500Y288500D02*
X105500Y287500D01*
X104500Y288500D02*
Y295500D01*
X285827Y330118D02*
Y333661D01*
X270669Y314961D02*
X285827Y330118D01*
X299996Y276000D02*
X308500Y284504D01*
X255299Y276000D02*
X299996D01*
X245866Y285433D02*
X255299Y276000D01*
X288488Y131000D02*
X296850Y122638D01*
X280000Y131000D02*
X288488D01*
X262583Y113583D02*
X280000Y131000D01*
X150394Y113583D02*
X262583D01*
X138500Y194500D02*
X146933D01*
X147433Y195000D01*
X147634Y194799D01*
X129701Y211500D02*
X132000D01*
X137000Y216500D01*
X129701D02*
X137000D01*
X138500Y218000D01*
Y229000D01*
X144433D01*
X109500Y297000D02*
X116500D01*
X133260Y313760D01*
X128250Y279500D02*
X134250Y285500D01*
X128250Y270250D02*
Y279500D01*
X134250Y285500D02*
X149000D01*
X156500Y278000D01*
Y271500D02*
Y278000D01*
X124500Y266500D02*
X128250Y270250D01*
X283614Y347000D02*
X285236Y348622D01*
X296850Y333661D02*
X297441Y334252D01*
Y348622D01*
X214500Y350500D02*
X218000Y347000D01*
X210500Y350500D02*
X214500D01*
X208500Y348500D02*
X210500Y350500D01*
X208500Y341000D02*
Y348500D01*
Y341000D02*
X209000Y340500D01*
X214906Y337405D02*
Y340500D01*
X212500Y335000D02*
X214906Y337405D01*
X170500Y335000D02*
X212500D01*
X159500Y346000D02*
X170500Y335000D01*
X285236Y348622D02*
X285827Y348031D01*
X285236Y107677D02*
X285827Y108268D01*
Y122638D01*
X117000Y201500D02*
X123500D01*
X126000Y204000D01*
X134000D01*
X135000Y203000D01*
X162909D01*
X171409Y211500D01*
X129701Y196500D02*
X142201Y184000D01*
X179000D01*
X112500Y196500D02*
X117000D01*
X108500Y200500D02*
X112500Y196500D01*
X108500Y200500D02*
Y232000D01*
X114500Y238000D01*
Y268500D01*
X103000Y280000D02*
X114500Y268500D01*
X103000Y280000D02*
Y299000D01*
X117500Y313500D01*
X179000Y184000D02*
X205000Y210000D01*
X455000D01*
X461000Y216000D01*
Y249500D01*
X439000Y271500D02*
X461000Y249500D01*
X358000Y271500D02*
X439000D01*
X160000Y273500D02*
X165560D01*
X111000Y209000D02*
Y214500D01*
X113000Y216500D01*
X117000D01*
X111000Y223500D02*
Y231000D01*
Y223500D02*
X113000Y221500D01*
X117000D01*
X138638Y161000D02*
X147634Y169996D01*
X117500Y161000D02*
X138638D01*
X338496Y274500D02*
X348500Y284504D01*
X220000Y274500D02*
X338496D01*
X208500Y286000D02*
X220000Y274500D01*
X187000Y286000D02*
X208500D01*
X328500Y284504D02*
X328504D01*
X335000Y291000D01*
X356000D01*
X363500Y283500D01*
Y279500D02*
Y283500D01*
X357000Y273000D02*
X363500Y279500D01*
X219000Y273000D02*
X357000D01*
X207500Y284500D02*
X219000Y273000D01*
X186000Y284500D02*
X207500D01*
X147500Y323000D02*
X186000Y284500D01*
X338500Y297496D02*
X344504Y303500D01*
X361500D01*
X365000Y300000D01*
Y278500D02*
Y300000D01*
X358000Y271500D02*
X365000Y278500D01*
X218000Y271500D02*
X358000D01*
X206500Y283000D02*
X218000Y271500D01*
X185000Y283000D02*
X206500D01*
X146500Y321500D02*
X185000Y283000D01*
X136740Y317240D02*
X139000Y319500D01*
X144500D01*
X146500Y317500D01*
Y315500D02*
Y317500D01*
X133260Y313740D02*
Y313760D01*
Y313740D02*
X135500Y311500D01*
X138000D01*
X143000Y316500D01*
X129500Y321500D02*
X146500D01*
X124000Y316000D02*
X129500Y321500D01*
X124000Y315000D02*
Y316000D01*
X119000Y310000D02*
X124000Y315000D01*
X117500Y310000D02*
X119000D01*
X128500Y323000D02*
X147500D01*
X122500Y317000D02*
X128500Y323000D01*
X122500Y316000D02*
Y317000D01*
X120000Y313500D02*
X122500Y316000D01*
X117500Y313500D02*
X120000D01*
X148500Y324500D02*
X187000Y286000D01*
X127500Y324500D02*
X148500D01*
X119500Y316500D02*
X127500Y324500D01*
X130315Y150394D02*
X130394Y150315D01*
Y113583D02*
Y150315D01*
X120315Y136221D02*
X120394Y136142D01*
Y113583D02*
Y136142D01*
X156886Y179248D02*
X162201D01*
X147634Y169996D02*
X156886Y179248D01*
X171409Y211500D02*
X173567Y213657D01*
Y229000D01*
Y231067D01*
X150315Y150394D02*
X150394Y150315D01*
Y113583D02*
Y150315D01*
X140315Y136221D02*
X140394Y136142D01*
Y113583D02*
Y136142D01*
X173567Y231067D02*
X207500Y265000D01*
Y270500D01*
X198500Y279500D02*
X207500Y270500D01*
X186000Y279500D02*
X198500D01*
X153000Y270500D02*
X156500Y267000D01*
X153000Y270500D02*
Y273500D01*
X453346Y178347D02*
X460000Y185000D01*
X443307Y178347D02*
X453346D01*
X438000Y264500D02*
X442000D01*
X449000Y257500D01*
Y255000D02*
Y257500D01*
X447346Y253346D02*
X449000Y255000D01*
X443110Y253346D02*
X447346D01*
X221063Y327559D02*
X236024Y342520D01*
X221063Y314961D02*
Y327559D01*
Y314961D02*
X270669D01*
X371063Y327559D02*
X386024Y342520D01*
X371063Y314961D02*
Y327559D01*
Y314961D02*
X420669D01*
X395866Y290158D02*
X420669Y314961D01*
X395866Y285433D02*
Y290158D01*
X245866D02*
X270669Y314961D01*
X245866Y285433D02*
Y290158D01*
X218307Y253346D02*
X293307D01*
X368307D01*
X443110D01*
X368307Y178347D02*
X443307D01*
X293307D02*
X368307D01*
X218307D02*
X293307D01*
X159500Y342000D02*
Y346000D01*
X153000Y335500D02*
X159500Y342000D01*
X147000Y335500D02*
X153000D01*
X143000Y331500D02*
X147000Y335500D01*
X143000Y330000D02*
Y331500D01*
X195280Y274780D02*
X200220D01*
X193000Y272500D02*
X195280Y274780D01*
X192053Y259304D02*
X199304D01*
X205500Y265500D01*
Y269500D01*
X201780Y273220D02*
X205500Y269500D01*
X185858Y265500D02*
X185929Y265429D01*
X155500Y265500D02*
X185858D01*
X150000Y271000D02*
X155500Y265500D01*
X165560Y273500D02*
X166060Y273000D01*
X168440Y268500D02*
X172940Y273000D01*
X156500Y271500D02*
X159500Y268500D01*
X104500Y295500D02*
X110000Y301000D01*
X110500D01*
X129500Y266500D02*
X138000D01*
X139260Y265240D01*
X142740Y261760D02*
X145500Y264520D01*
Y267000D01*
X135000Y257000D02*
X137000Y259000D01*
X133000Y257000D02*
X135000D01*
X127000Y263000D02*
X133000Y257000D01*
X129500Y266500D02*
X133520Y262480D01*
X124500Y266500D02*
X129500D01*
X139000Y334000D02*
X143000Y330000D01*
X130500Y334000D02*
X139000D01*
X128500Y332000D02*
X130500Y334000D01*
D31*
X172940Y273000D02*
D03*
X166060D02*
D03*
D61*
X175984Y151575D02*
D03*
X352756Y314961D02*
D03*
X204724Y300394D02*
D03*
X252756Y228150D02*
D03*
X327559D02*
D03*
X390945Y151575D02*
D03*
X105905Y105905D02*
D03*
X476772Y350394D02*
D03*
X105905D02*
D03*
X476772Y105905D02*
D03*
D62*
X433366Y220374D02*
D03*
X358366D02*
D03*
X283366D02*
D03*
X433366Y145374D02*
D03*
X358366D02*
D03*
X283366D02*
D03*
X208366D02*
D03*
Y220374D02*
D03*
D63*
X418366Y230374D02*
D03*
X443366Y240374D02*
D03*
X368366D02*
D03*
X343366Y230374D02*
D03*
X293366Y240374D02*
D03*
X268366Y230374D02*
D03*
X443366Y165374D02*
D03*
X418366Y155374D02*
D03*
X368366Y165374D02*
D03*
X343366Y155374D02*
D03*
X293366Y165374D02*
D03*
X268366Y155374D02*
D03*
X218366Y165374D02*
D03*
X193366Y155374D02*
D03*
Y230374D02*
D03*
X218366Y240374D02*
D03*
D64*
X453366Y220374D02*
D03*
X413366D02*
D03*
X338366D02*
D03*
X378366D02*
D03*
X263366D02*
D03*
X303366D02*
D03*
X413366Y145374D02*
D03*
X453366D02*
D03*
X338366D02*
D03*
X378366D02*
D03*
X263366D02*
D03*
X303366D02*
D03*
X188366D02*
D03*
X228366D02*
D03*
Y220374D02*
D03*
X188366D02*
D03*
D65*
X169091Y176295D02*
D03*
Y188106D02*
D03*
X211953Y347390D02*
D03*
X200142D02*
D03*
D66*
X120394Y113583D02*
D03*
X130394D02*
D03*
X140394D02*
D03*
D67*
X150394D02*
D03*
D68*
X371063Y314961D02*
D03*
X420669D02*
D03*
X221063D02*
D03*
X270669D02*
D03*
D69*
X386024Y342520D02*
D03*
X236024D02*
D03*
D70*
X405709D02*
D03*
X386024Y285433D02*
D03*
X395866D02*
D03*
X405709D02*
D03*
X255709Y342520D02*
D03*
X236024Y285433D02*
D03*
X245866D02*
D03*
X255709D02*
D03*
D71*
X152461Y345768D02*
D03*
X118405D02*
D03*
X152461Y329232D02*
D03*
X118405D02*
D03*
D72*
X146850Y331201D02*
D03*
X124016D02*
D03*
D73*
X353000Y108000D02*
D03*
X467000Y152000D02*
D03*
X296654Y309252D02*
D03*
Y300787D02*
D03*
X461500Y273500D02*
D03*
X464000Y202500D02*
D03*
X443500D02*
D03*
X376500D02*
D03*
X368500D02*
D03*
X301500D02*
D03*
X293500D02*
D03*
X226500D02*
D03*
X218500D02*
D03*
X162000Y167000D02*
D03*
X135500Y221500D02*
D03*
X155500Y211500D02*
D03*
X184500Y272500D02*
D03*
X138500Y194500D02*
D03*
Y229000D02*
D03*
X160000Y273500D02*
D03*
X111000Y209000D02*
D03*
Y231000D02*
D03*
X119500Y316500D02*
D03*
X117500Y313500D02*
D03*
Y310000D02*
D03*
Y161000D02*
D03*
X460000Y185000D02*
D03*
X438000Y264500D02*
D03*
X159500Y346000D02*
D03*
X146500Y315500D02*
D03*
X143000Y316500D02*
D03*
X156500Y271500D02*
D03*
X145500Y267000D02*
D03*
X109500Y297000D02*
D03*
X110500Y301000D02*
D03*
X128500Y332000D02*
D03*
X143000Y330000D02*
D03*
X127000Y263000D02*
D03*
X124500Y266500D02*
D03*
X150000Y271000D02*
D03*
X153000Y273500D02*
D03*
X443110Y253346D02*
D03*
X368307D02*
D03*
X293307D02*
D03*
X218307D02*
D03*
Y178347D02*
D03*
X293307D02*
D03*
X368307D02*
D03*
X443307D02*
D03*
D74*
X171409Y211500D02*
D03*
X147000D02*
D03*
D75*
X117000Y196500D02*
D03*
X129701D02*
D03*
X117000Y211500D02*
D03*
Y201500D02*
D03*
X129701Y211500D02*
D03*
Y201500D02*
D03*
X117000Y206500D02*
D03*
X129701D02*
D03*
X117000Y226500D02*
D03*
Y216500D02*
D03*
X129701Y226500D02*
D03*
Y216500D02*
D03*
X117000Y221500D02*
D03*
X129701D02*
D03*
D76*
X162201Y173343D02*
D03*
Y179248D02*
D03*
Y191059D02*
D03*
D77*
X107579Y291000D02*
D03*
X112500D02*
D03*
D78*
X137000Y259000D02*
D03*
X133520Y262480D02*
D03*
X142740Y261760D02*
D03*
X139260Y265240D02*
D03*
D79*
X193000Y272500D02*
D03*
X185929Y265429D02*
D03*
X192053Y259304D02*
D03*
X199125Y266375D02*
D03*
D80*
X285827Y122638D02*
D03*
X296850D02*
D03*
Y333661D02*
D03*
X285827D02*
D03*
D81*
X297441Y348622D02*
D03*
X285236D02*
D03*
X297441Y107677D02*
D03*
X285236D02*
D03*
D82*
X358500Y297496D02*
D03*
X348500Y284504D02*
D03*
X338500Y297496D02*
D03*
X328500Y284504D02*
D03*
X318500Y297496D02*
D03*
D83*
X308500Y284504D02*
D03*
D84*
X214906Y340500D02*
D03*
X209000D02*
D03*
X197189D02*
D03*
D85*
X120315Y136221D02*
D03*
X130315Y150394D02*
D03*
X140315Y136221D02*
D03*
X150315Y150394D02*
D03*
D86*
X173567Y229000D02*
D03*
X144433D02*
D03*
D87*
X147634Y169996D02*
D03*
Y194799D02*
D03*
D88*
X201780Y273220D02*
D03*
X200220Y274780D02*
D03*
D89*
X136740Y317240D02*
D03*
X133260Y313760D02*
D03*
M02*
