G04*
G04 #@! TF.GenerationSoftware,Altium Limited,CircuitMaker,2.3.0 (2.3.0.3)*
G04*
G04 Layer_Color=2752767*
%FSLAX25Y25*%
%MOIN*%
G70*
G04*
G04 #@! TF.SameCoordinates,7A92FE71-458D-4544-954B-740947ED0FFD*
G04*
G04*
G04 #@! TF.FilePolarity,Positive*
G04*
G01*
G75*
%ADD105C,0.00200*%
%ADD107C,0.00267*%
%ADD108C,0.00133*%
D105*
X175184Y150775D02*
Y152375D01*
X176784D01*
Y150775D01*
X175184D01*
X351956Y314161D02*
Y315761D01*
X353556D01*
Y314161D01*
X351956D01*
X203924Y299594D02*
Y301194D01*
X205524D01*
Y299594D01*
X203924D01*
X251956Y227350D02*
Y228950D01*
X253556D01*
Y227350D01*
X251956D01*
X326759D02*
Y228950D01*
X328359D01*
Y227350D01*
X326759D01*
X390145Y150775D02*
Y152375D01*
X391745D01*
Y150775D01*
X390145D01*
X418366Y229574D02*
X417566Y231174D01*
X419166D01*
X418366Y229574D01*
X443366Y239574D02*
X442566Y241174D01*
X444166D01*
X443366Y239574D01*
X453366Y219574D02*
X453766Y219974D01*
X454166D01*
X453766Y220374D01*
X454166Y220774D01*
X453766D01*
X453366Y221174D01*
X452966Y220774D01*
X452566D01*
X452966Y220374D01*
X452566Y219974D01*
X452966D01*
X453366Y219574D01*
X413366D02*
X413766Y219974D01*
X414166D01*
X413766Y220374D01*
X414166Y220774D01*
X413766D01*
X413366Y221174D01*
X412966Y220774D01*
X412566D01*
X412966Y220374D01*
X412566Y219974D01*
X412966D01*
X413366Y219574D01*
X105105Y105105D02*
Y106705D01*
X106705D01*
Y105105D01*
X105105D01*
X168291Y175495D02*
X168691Y176295D01*
X168291Y177095D01*
X169091Y176695D01*
X169891Y177095D01*
X169491Y176295D01*
X169891Y175495D01*
X169091Y175895D01*
X168291Y175495D01*
Y187306D02*
X168691Y188106D01*
X168291Y188906D01*
X169091Y188506D01*
X169891Y188906D01*
X169491Y188106D01*
X169891Y187306D01*
X169091Y187706D01*
X168291Y187306D01*
X119994Y113183D02*
Y112783D01*
X120794D01*
Y113183D01*
X121194D01*
Y113983D01*
X120794D01*
Y114383D01*
X119994D01*
Y113983D01*
X119594D01*
Y113183D01*
X119994D01*
X129994D02*
Y112783D01*
X130794D01*
Y113183D01*
X131194D01*
Y113983D01*
X130794D01*
Y114383D01*
X129994D01*
Y113983D01*
X129594D01*
Y113183D01*
X129994D01*
X139994D02*
Y112783D01*
X140794D01*
Y113183D01*
X141194D01*
Y113983D01*
X140794D01*
Y114383D01*
X139994D01*
Y113983D01*
X139594D01*
Y113183D01*
X139994D01*
X149994D02*
Y112783D01*
X150794D01*
Y113183D01*
X151194D01*
Y113983D01*
X150794D01*
Y114383D01*
X149994D01*
Y113983D01*
X149594D01*
Y113183D01*
X149994D01*
X338366Y219574D02*
X338766Y219974D01*
X339166D01*
X338766Y220374D01*
X339166Y220774D01*
X338766D01*
X338366Y221174D01*
X337966Y220774D01*
X337566D01*
X337966Y220374D01*
X337566Y219974D01*
X337966D01*
X338366Y219574D01*
X378366D02*
X378766Y219974D01*
X379166D01*
X378766Y220374D01*
X379166Y220774D01*
X378766D01*
X378366Y221174D01*
X377966Y220774D01*
X377566D01*
X377966Y220374D01*
X377566Y219974D01*
X377966D01*
X378366Y219574D01*
X368366Y239574D02*
X367566Y241174D01*
X369166D01*
X368366Y239574D01*
X343366Y229574D02*
X342566Y231174D01*
X344166D01*
X343366Y229574D01*
X263366Y219574D02*
X263766Y219974D01*
X264166D01*
X263766Y220374D01*
X264166Y220774D01*
X263766D01*
X263366Y221174D01*
X262966Y220774D01*
X262566D01*
X262966Y220374D01*
X262566Y219974D01*
X262966D01*
X263366Y219574D01*
X303366D02*
X303766Y219974D01*
X304166D01*
X303766Y220374D01*
X304166Y220774D01*
X303766D01*
X303366Y221174D01*
X302966Y220774D01*
X302566D01*
X302966Y220374D01*
X302566Y219974D01*
X302966D01*
X303366Y219574D01*
X293366Y239574D02*
X292566Y241174D01*
X294166D01*
X293366Y239574D01*
X268366Y229574D02*
X267566Y231174D01*
X269166D01*
X268366Y229574D01*
X413366Y144574D02*
X413766Y144974D01*
X414166D01*
X413766Y145374D01*
X414166Y145774D01*
X413766D01*
X413366Y146174D01*
X412966Y145774D01*
X412566D01*
X412966Y145374D01*
X412566Y144974D01*
X412966D01*
X413366Y144574D01*
X453366D02*
X453766Y144974D01*
X454166D01*
X453766Y145374D01*
X454166Y145774D01*
X453766D01*
X453366Y146174D01*
X452966Y145774D01*
X452566D01*
X452966Y145374D01*
X452566Y144974D01*
X452966D01*
X453366Y144574D01*
X443366Y164574D02*
X442566Y166174D01*
X444166D01*
X443366Y164574D01*
X418366Y154574D02*
X417566Y156174D01*
X419166D01*
X418366Y154574D01*
X338366Y144574D02*
X338766Y144974D01*
X339166D01*
X338766Y145374D01*
X339166Y145774D01*
X338766D01*
X338366Y146174D01*
X337966Y145774D01*
X337566D01*
X337966Y145374D01*
X337566Y144974D01*
X337966D01*
X338366Y144574D01*
X378366D02*
X378766Y144974D01*
X379166D01*
X378766Y145374D01*
X379166Y145774D01*
X378766D01*
X378366Y146174D01*
X377966Y145774D01*
X377566D01*
X377966Y145374D01*
X377566Y144974D01*
X377966D01*
X378366Y144574D01*
X368366Y164574D02*
X367566Y166174D01*
X369166D01*
X368366Y164574D01*
X343366Y154574D02*
X342566Y156174D01*
X344166D01*
X343366Y154574D01*
X263366Y144574D02*
X263766Y144974D01*
X264166D01*
X263766Y145374D01*
X264166Y145774D01*
X263766D01*
X263366Y146174D01*
X262966Y145774D01*
X262566D01*
X262966Y145374D01*
X262566Y144974D01*
X262966D01*
X263366Y144574D01*
X303366D02*
X303766Y144974D01*
X304166D01*
X303766Y145374D01*
X304166Y145774D01*
X303766D01*
X303366Y146174D01*
X302966Y145774D01*
X302566D01*
X302966Y145374D01*
X302566Y144974D01*
X302966D01*
X303366Y144574D01*
X293366Y164574D02*
X292566Y166174D01*
X294166D01*
X293366Y164574D01*
X268366Y154574D02*
X267566Y156174D01*
X269166D01*
X268366Y154574D01*
X188366Y144574D02*
X188766Y144974D01*
X189166D01*
X188766Y145374D01*
X189166Y145774D01*
X188766D01*
X188366Y146174D01*
X187966Y145774D01*
X187566D01*
X187966Y145374D01*
X187566Y144974D01*
X187966D01*
X188366Y144574D01*
X228366D02*
X228766Y144974D01*
X229166D01*
X228766Y145374D01*
X229166Y145774D01*
X228766D01*
X228366Y146174D01*
X227966Y145774D01*
X227566D01*
X227966Y145374D01*
X227566Y144974D01*
X227966D01*
X228366Y144574D01*
X218366Y164574D02*
X217566Y166174D01*
X219166D01*
X218366Y164574D01*
X193366Y154574D02*
X192566Y156174D01*
X194166D01*
X193366Y154574D01*
X370263Y314161D02*
X370663D01*
X371063Y314561D01*
X371463Y314161D01*
X371863D01*
Y314561D01*
X371463Y314961D01*
X371863Y315361D01*
Y315761D01*
X371463D01*
X371063Y315361D01*
X370663Y315761D01*
X370263D01*
Y315361D01*
X370663Y314961D01*
X370263Y314561D01*
Y314161D01*
X385224Y342520D02*
X386024Y343320D01*
X386824Y342520D01*
X386024Y341720D01*
X385224Y342520D01*
X404909D02*
X405709Y343320D01*
X406509Y342520D01*
X405709Y341720D01*
X404909Y342520D01*
X385224Y285433D02*
X386024Y286233D01*
X386824Y285433D01*
X386024Y284633D01*
X385224Y285433D01*
X395066D02*
X395866Y286233D01*
X396666Y285433D01*
X395866Y284633D01*
X395066Y285433D01*
X404909D02*
X405709Y286233D01*
X406509Y285433D01*
X405709Y284633D01*
X404909Y285433D01*
X419869Y314161D02*
X420269D01*
X420669Y314561D01*
X421069Y314161D01*
X421469D01*
Y314561D01*
X421069Y314961D01*
X421469Y315361D01*
Y315761D01*
X421069D01*
X420669Y315361D01*
X420269Y315761D01*
X419869D01*
Y315361D01*
X420269Y314961D01*
X419869Y314561D01*
Y314161D01*
X220263D02*
X220663D01*
X221063Y314561D01*
X221463Y314161D01*
X221863D01*
Y314561D01*
X221463Y314961D01*
X221863Y315361D01*
Y315761D01*
X221463D01*
X221063Y315361D01*
X220663Y315761D01*
X220263D01*
Y315361D01*
X220663Y314961D01*
X220263Y314561D01*
Y314161D01*
X235224Y342520D02*
X236024Y343320D01*
X236824Y342520D01*
X236024Y341720D01*
X235224Y342520D01*
X254909D02*
X255709Y343320D01*
X256509Y342520D01*
X255709Y341720D01*
X254909Y342520D01*
X235224Y285433D02*
X236024Y286233D01*
X236824Y285433D01*
X236024Y284633D01*
X235224Y285433D01*
X245066D02*
X245866Y286233D01*
X246666Y285433D01*
X245866Y284633D01*
X245066Y285433D01*
X254909D02*
X255709Y286233D01*
X256509Y285433D01*
X255709Y284633D01*
X254909Y285433D01*
X269869Y314161D02*
X270269D01*
X270669Y314561D01*
X271069Y314161D01*
X271469D01*
Y314561D01*
X271069Y314961D01*
X271469Y315361D01*
Y315761D01*
X271069D01*
X270669Y315361D01*
X270269Y315761D01*
X269869D01*
Y315361D01*
X270269Y314961D01*
X269869Y314561D01*
Y314161D01*
X211153Y346590D02*
X211553Y347390D01*
X211153Y348190D01*
X211953Y347790D01*
X212753Y348190D01*
X212353Y347390D01*
X212753Y346590D01*
X211953Y346990D01*
X211153Y346590D01*
X199342D02*
X199742Y347390D01*
X199342Y348190D01*
X200142Y347790D01*
X200942Y348190D01*
X200542Y347390D01*
X200942Y346590D01*
X200142Y346990D01*
X199342Y346590D01*
X151661Y344968D02*
Y346568D01*
X153261D01*
Y344968D01*
X151661D01*
X152061Y345368D02*
Y346168D01*
X152861D01*
Y345368D01*
X152061D01*
X117605Y344968D02*
Y346568D01*
X119205D01*
Y344968D01*
X117605D01*
X118006Y345368D02*
Y346168D01*
X118806D01*
Y345368D01*
X118006D01*
X146850Y330401D02*
X146050Y332001D01*
X147650D01*
X146850Y330401D01*
Y330801D02*
X146450Y331601D01*
X147250D01*
X146850Y330801D01*
X124016Y330401D02*
X123216Y332001D01*
X124816D01*
X124016Y330401D01*
Y330801D02*
X123616Y331601D01*
X124416D01*
X124016Y330801D01*
X193366Y229574D02*
X192566Y231174D01*
X194166D01*
X193366Y229574D01*
X218366Y239574D02*
X217566Y241174D01*
X219166D01*
X218366Y239574D01*
X228366Y219574D02*
X228766Y219974D01*
X229166D01*
X228766Y220374D01*
X229166Y220774D01*
X228766D01*
X228366Y221174D01*
X227966Y220774D01*
X227566D01*
X227966Y220374D01*
X227566Y219974D01*
X227966D01*
X228366Y219574D01*
X188366D02*
X188766Y219974D01*
X189166D01*
X188766Y220374D01*
X189166Y220774D01*
X188766D01*
X188366Y221174D01*
X187966Y220774D01*
X187566D01*
X187966Y220374D01*
X187566Y219974D01*
X187966D01*
X188366Y219574D01*
X475972Y349594D02*
Y351194D01*
X477572D01*
Y349594D01*
X475972D01*
X105105D02*
Y351194D01*
X106705D01*
Y349594D01*
X105105D01*
X475972Y105105D02*
Y106705D01*
X477572D01*
Y105105D01*
X475972D01*
X353000Y107200D02*
X353400Y107600D01*
X353800D01*
X353400Y108000D01*
X353800Y108400D01*
X353400D01*
X353000Y108800D01*
X352600Y108400D01*
X352200D01*
X352600Y108000D01*
X352200Y107600D01*
X352600D01*
X353000Y107200D01*
Y107600D02*
X353200Y107800D01*
X353400D01*
X353200Y108000D01*
X353400Y108200D01*
X353200D01*
X353000Y108400D01*
X352800Y108200D01*
X352600D01*
X352800Y108000D01*
X352600Y107800D01*
X352800D01*
X353000Y107600D01*
X467000Y151200D02*
X467400Y151600D01*
X467800D01*
X467400Y152000D01*
X467800Y152400D01*
X467400D01*
X467000Y152800D01*
X466600Y152400D01*
X466200D01*
X466600Y152000D01*
X466200Y151600D01*
X466600D01*
X467000Y151200D01*
Y151600D02*
X467200Y151800D01*
X467400D01*
X467200Y152000D01*
X467400Y152200D01*
X467200D01*
X467000Y152400D01*
X466800Y152200D01*
X466600D01*
X466800Y152000D01*
X466600Y151800D01*
X466800D01*
X467000Y151600D01*
X296654Y308452D02*
X297054Y308852D01*
X297453D01*
X297054Y309252D01*
X297453Y309652D01*
X297054D01*
X296654Y310052D01*
X296253Y309652D01*
X295853D01*
X296253Y309252D01*
X295853Y308852D01*
X296253D01*
X296654Y308452D01*
Y308852D02*
X296853Y309052D01*
X297054D01*
X296853Y309252D01*
X297054Y309452D01*
X296853D01*
X296654Y309652D01*
X296453Y309452D01*
X296253D01*
X296453Y309252D01*
X296253Y309052D01*
X296453D01*
X296654Y308852D01*
Y299987D02*
X297054Y300387D01*
X297453D01*
X297054Y300787D01*
X297453Y301187D01*
X297054D01*
X296654Y301587D01*
X296253Y301187D01*
X295853D01*
X296253Y300787D01*
X295853Y300387D01*
X296253D01*
X296654Y299987D01*
Y300387D02*
X296853Y300587D01*
X297054D01*
X296853Y300787D01*
X297054Y300987D01*
X296853D01*
X296654Y301187D01*
X296453Y300987D01*
X296253D01*
X296453Y300787D01*
X296253Y300587D01*
X296453D01*
X296654Y300387D01*
X461500Y272700D02*
X461900Y273100D01*
X462300D01*
X461900Y273500D01*
X462300Y273900D01*
X461900D01*
X461500Y274300D01*
X461100Y273900D01*
X460700D01*
X461100Y273500D01*
X460700Y273100D01*
X461100D01*
X461500Y272700D01*
Y273100D02*
X461700Y273300D01*
X461900D01*
X461700Y273500D01*
X461900Y273700D01*
X461700D01*
X461500Y273900D01*
X461300Y273700D01*
X461100D01*
X461300Y273500D01*
X461100Y273300D01*
X461300D01*
X461500Y273100D01*
X464000Y201700D02*
X464400Y202100D01*
X464800D01*
X464400Y202500D01*
X464800Y202900D01*
X464400D01*
X464000Y203300D01*
X463600Y202900D01*
X463200D01*
X463600Y202500D01*
X463200Y202100D01*
X463600D01*
X464000Y201700D01*
Y202100D02*
X464200Y202300D01*
X464400D01*
X464200Y202500D01*
X464400Y202700D01*
X464200D01*
X464000Y202900D01*
X463800Y202700D01*
X463600D01*
X463800Y202500D01*
X463600Y202300D01*
X463800D01*
X464000Y202100D01*
X443500Y201700D02*
X443900Y202100D01*
X444300D01*
X443900Y202500D01*
X444300Y202900D01*
X443900D01*
X443500Y203300D01*
X443100Y202900D01*
X442700D01*
X443100Y202500D01*
X442700Y202100D01*
X443100D01*
X443500Y201700D01*
Y202100D02*
X443700Y202300D01*
X443900D01*
X443700Y202500D01*
X443900Y202700D01*
X443700D01*
X443500Y202900D01*
X443300Y202700D01*
X443100D01*
X443300Y202500D01*
X443100Y202300D01*
X443300D01*
X443500Y202100D01*
X376500Y201700D02*
X376900Y202100D01*
X377300D01*
X376900Y202500D01*
X377300Y202900D01*
X376900D01*
X376500Y203300D01*
X376100Y202900D01*
X375700D01*
X376100Y202500D01*
X375700Y202100D01*
X376100D01*
X376500Y201700D01*
Y202100D02*
X376700Y202300D01*
X376900D01*
X376700Y202500D01*
X376900Y202700D01*
X376700D01*
X376500Y202900D01*
X376300Y202700D01*
X376100D01*
X376300Y202500D01*
X376100Y202300D01*
X376300D01*
X376500Y202100D01*
X368500Y201700D02*
X368900Y202100D01*
X369300D01*
X368900Y202500D01*
X369300Y202900D01*
X368900D01*
X368500Y203300D01*
X368100Y202900D01*
X367700D01*
X368100Y202500D01*
X367700Y202100D01*
X368100D01*
X368500Y201700D01*
Y202100D02*
X368700Y202300D01*
X368900D01*
X368700Y202500D01*
X368900Y202700D01*
X368700D01*
X368500Y202900D01*
X368300Y202700D01*
X368100D01*
X368300Y202500D01*
X368100Y202300D01*
X368300D01*
X368500Y202100D01*
X301500Y201700D02*
X301900Y202100D01*
X302300D01*
X301900Y202500D01*
X302300Y202900D01*
X301900D01*
X301500Y203300D01*
X301100Y202900D01*
X300700D01*
X301100Y202500D01*
X300700Y202100D01*
X301100D01*
X301500Y201700D01*
Y202100D02*
X301700Y202300D01*
X301900D01*
X301700Y202500D01*
X301900Y202700D01*
X301700D01*
X301500Y202900D01*
X301300Y202700D01*
X301100D01*
X301300Y202500D01*
X301100Y202300D01*
X301300D01*
X301500Y202100D01*
X293500Y201700D02*
X293900Y202100D01*
X294300D01*
X293900Y202500D01*
X294300Y202900D01*
X293900D01*
X293500Y203300D01*
X293100Y202900D01*
X292700D01*
X293100Y202500D01*
X292700Y202100D01*
X293100D01*
X293500Y201700D01*
Y202100D02*
X293700Y202300D01*
X293900D01*
X293700Y202500D01*
X293900Y202700D01*
X293700D01*
X293500Y202900D01*
X293300Y202700D01*
X293100D01*
X293300Y202500D01*
X293100Y202300D01*
X293300D01*
X293500Y202100D01*
X226500Y201700D02*
X226900Y202100D01*
X227300D01*
X226900Y202500D01*
X227300Y202900D01*
X226900D01*
X226500Y203300D01*
X226100Y202900D01*
X225700D01*
X226100Y202500D01*
X225700Y202100D01*
X226100D01*
X226500Y201700D01*
Y202100D02*
X226700Y202300D01*
X226900D01*
X226700Y202500D01*
X226900Y202700D01*
X226700D01*
X226500Y202900D01*
X226300Y202700D01*
X226100D01*
X226300Y202500D01*
X226100Y202300D01*
X226300D01*
X226500Y202100D01*
X218500Y201700D02*
X218900Y202100D01*
X219300D01*
X218900Y202500D01*
X219300Y202900D01*
X218900D01*
X218500Y203300D01*
X218100Y202900D01*
X217700D01*
X218100Y202500D01*
X217700Y202100D01*
X218100D01*
X218500Y201700D01*
Y202100D02*
X218700Y202300D01*
X218900D01*
X218700Y202500D01*
X218900Y202700D01*
X218700D01*
X218500Y202900D01*
X218300Y202700D01*
X218100D01*
X218300Y202500D01*
X218100Y202300D01*
X218300D01*
X218500Y202100D01*
X162000Y166200D02*
X162400Y166600D01*
X162800D01*
X162400Y167000D01*
X162800Y167400D01*
X162400D01*
X162000Y167800D01*
X161600Y167400D01*
X161200D01*
X161600Y167000D01*
X161200Y166600D01*
X161600D01*
X162000Y166200D01*
Y166600D02*
X162200Y166800D01*
X162400D01*
X162200Y167000D01*
X162400Y167200D01*
X162200D01*
X162000Y167400D01*
X161800Y167200D01*
X161600D01*
X161800Y167000D01*
X161600Y166800D01*
X161800D01*
X162000Y166600D01*
X135500Y220700D02*
X135900Y221100D01*
X136300D01*
X135900Y221500D01*
X136300Y221900D01*
X135900D01*
X135500Y222300D01*
X135100Y221900D01*
X134700D01*
X135100Y221500D01*
X134700Y221100D01*
X135100D01*
X135500Y220700D01*
Y221100D02*
X135700Y221300D01*
X135900D01*
X135700Y221500D01*
X135900Y221700D01*
X135700D01*
X135500Y221900D01*
X135300Y221700D01*
X135100D01*
X135300Y221500D01*
X135100Y221300D01*
X135300D01*
X135500Y221100D01*
X155500Y210700D02*
X155900Y211100D01*
X156300D01*
X155900Y211500D01*
X156300Y211900D01*
X155900D01*
X155500Y212300D01*
X155100Y211900D01*
X154700D01*
X155100Y211500D01*
X154700Y211100D01*
X155100D01*
X155500Y210700D01*
Y211100D02*
X155700Y211300D01*
X155900D01*
X155700Y211500D01*
X155900Y211700D01*
X155700D01*
X155500Y211900D01*
X155300Y211700D01*
X155100D01*
X155300Y211500D01*
X155100Y211300D01*
X155300D01*
X155500Y211100D01*
X184500Y271700D02*
X184900Y272100D01*
X185300D01*
X184900Y272500D01*
X185300Y272900D01*
X184900D01*
X184500Y273300D01*
X184100Y272900D01*
X183700D01*
X184100Y272500D01*
X183700Y272100D01*
X184100D01*
X184500Y271700D01*
Y272100D02*
X184700Y272300D01*
X184900D01*
X184700Y272500D01*
X184900Y272700D01*
X184700D01*
X184500Y272900D01*
X184300Y272700D01*
X184100D01*
X184300Y272500D01*
X184100Y272300D01*
X184300D01*
X184500Y272100D01*
X138500Y193700D02*
X138900Y194100D01*
X139300D01*
X138900Y194500D01*
X139300Y194900D01*
X138900D01*
X138500Y195300D01*
X138100Y194900D01*
X137700D01*
X138100Y194500D01*
X137700Y194100D01*
X138100D01*
X138500Y193700D01*
Y194100D02*
X138700Y194300D01*
X138900D01*
X138700Y194500D01*
X138900Y194700D01*
X138700D01*
X138500Y194900D01*
X138300Y194700D01*
X138100D01*
X138300Y194500D01*
X138100Y194300D01*
X138300D01*
X138500Y194100D01*
Y228200D02*
X138900Y228600D01*
X139300D01*
X138900Y229000D01*
X139300Y229400D01*
X138900D01*
X138500Y229800D01*
X138100Y229400D01*
X137700D01*
X138100Y229000D01*
X137700Y228600D01*
X138100D01*
X138500Y228200D01*
Y228600D02*
X138700Y228800D01*
X138900D01*
X138700Y229000D01*
X138900Y229200D01*
X138700D01*
X138500Y229400D01*
X138300Y229200D01*
X138100D01*
X138300Y229000D01*
X138100Y228800D01*
X138300D01*
X138500Y228600D01*
X160000Y272700D02*
X160400Y273100D01*
X160800D01*
X160400Y273500D01*
X160800Y273900D01*
X160400D01*
X160000Y274300D01*
X159600Y273900D01*
X159200D01*
X159600Y273500D01*
X159200Y273100D01*
X159600D01*
X160000Y272700D01*
Y273100D02*
X160200Y273300D01*
X160400D01*
X160200Y273500D01*
X160400Y273700D01*
X160200D01*
X160000Y273900D01*
X159800Y273700D01*
X159600D01*
X159800Y273500D01*
X159600Y273300D01*
X159800D01*
X160000Y273100D01*
X111000Y208200D02*
X111400Y208600D01*
X111800D01*
X111400Y209000D01*
X111800Y209400D01*
X111400D01*
X111000Y209800D01*
X110600Y209400D01*
X110200D01*
X110600Y209000D01*
X110200Y208600D01*
X110600D01*
X111000Y208200D01*
Y208600D02*
X111200Y208800D01*
X111400D01*
X111200Y209000D01*
X111400Y209200D01*
X111200D01*
X111000Y209400D01*
X110800Y209200D01*
X110600D01*
X110800Y209000D01*
X110600Y208800D01*
X110800D01*
X111000Y208600D01*
Y230200D02*
X111400Y230600D01*
X111800D01*
X111400Y231000D01*
X111800Y231400D01*
X111400D01*
X111000Y231800D01*
X110600Y231400D01*
X110200D01*
X110600Y231000D01*
X110200Y230600D01*
X110600D01*
X111000Y230200D01*
Y230600D02*
X111200Y230800D01*
X111400D01*
X111200Y231000D01*
X111400Y231200D01*
X111200D01*
X111000Y231400D01*
X110800Y231200D01*
X110600D01*
X110800Y231000D01*
X110600Y230800D01*
X110800D01*
X111000Y230600D01*
X119500Y315700D02*
X119900Y316100D01*
X120300D01*
X119900Y316500D01*
X120300Y316900D01*
X119900D01*
X119500Y317300D01*
X119100Y316900D01*
X118700D01*
X119100Y316500D01*
X118700Y316100D01*
X119100D01*
X119500Y315700D01*
Y316100D02*
X119700Y316300D01*
X119900D01*
X119700Y316500D01*
X119900Y316700D01*
X119700D01*
X119500Y316900D01*
X119300Y316700D01*
X119100D01*
X119300Y316500D01*
X119100Y316300D01*
X119300D01*
X119500Y316100D01*
X117500Y312700D02*
X117900Y313100D01*
X118300D01*
X117900Y313500D01*
X118300Y313900D01*
X117900D01*
X117500Y314300D01*
X117100Y313900D01*
X116700D01*
X117100Y313500D01*
X116700Y313100D01*
X117100D01*
X117500Y312700D01*
Y313100D02*
X117700Y313300D01*
X117900D01*
X117700Y313500D01*
X117900Y313700D01*
X117700D01*
X117500Y313900D01*
X117300Y313700D01*
X117100D01*
X117300Y313500D01*
X117100Y313300D01*
X117300D01*
X117500Y313100D01*
Y309200D02*
X117900Y309600D01*
X118300D01*
X117900Y310000D01*
X118300Y310400D01*
X117900D01*
X117500Y310800D01*
X117100Y310400D01*
X116700D01*
X117100Y310000D01*
X116700Y309600D01*
X117100D01*
X117500Y309200D01*
Y309600D02*
X117700Y309800D01*
X117900D01*
X117700Y310000D01*
X117900Y310200D01*
X117700D01*
X117500Y310400D01*
X117300Y310200D01*
X117100D01*
X117300Y310000D01*
X117100Y309800D01*
X117300D01*
X117500Y309600D01*
Y160200D02*
X117900Y160600D01*
X118300D01*
X117900Y161000D01*
X118300Y161400D01*
X117900D01*
X117500Y161800D01*
X117100Y161400D01*
X116700D01*
X117100Y161000D01*
X116700Y160600D01*
X117100D01*
X117500Y160200D01*
Y160600D02*
X117700Y160800D01*
X117900D01*
X117700Y161000D01*
X117900Y161200D01*
X117700D01*
X117500Y161400D01*
X117300Y161200D01*
X117100D01*
X117300Y161000D01*
X117100Y160800D01*
X117300D01*
X117500Y160600D01*
X460000Y184200D02*
X460400Y184600D01*
X460800D01*
X460400Y185000D01*
X460800Y185400D01*
X460400D01*
X460000Y185800D01*
X459600Y185400D01*
X459200D01*
X459600Y185000D01*
X459200Y184600D01*
X459600D01*
X460000Y184200D01*
Y184600D02*
X460200Y184800D01*
X460400D01*
X460200Y185000D01*
X460400Y185200D01*
X460200D01*
X460000Y185400D01*
X459800Y185200D01*
X459600D01*
X459800Y185000D01*
X459600Y184800D01*
X459800D01*
X460000Y184600D01*
X438000Y263700D02*
X438400Y264100D01*
X438800D01*
X438400Y264500D01*
X438800Y264900D01*
X438400D01*
X438000Y265300D01*
X437600Y264900D01*
X437200D01*
X437600Y264500D01*
X437200Y264100D01*
X437600D01*
X438000Y263700D01*
Y264100D02*
X438200Y264300D01*
X438400D01*
X438200Y264500D01*
X438400Y264700D01*
X438200D01*
X438000Y264900D01*
X437800Y264700D01*
X437600D01*
X437800Y264500D01*
X437600Y264300D01*
X437800D01*
X438000Y264100D01*
X159500Y345200D02*
X159900Y345600D01*
X160300D01*
X159900Y346000D01*
X160300Y346400D01*
X159900D01*
X159500Y346800D01*
X159100Y346400D01*
X158700D01*
X159100Y346000D01*
X158700Y345600D01*
X159100D01*
X159500Y345200D01*
Y345600D02*
X159700Y345800D01*
X159900D01*
X159700Y346000D01*
X159900Y346200D01*
X159700D01*
X159500Y346400D01*
X159300Y346200D01*
X159100D01*
X159300Y346000D01*
X159100Y345800D01*
X159300D01*
X159500Y345600D01*
X146500Y314700D02*
X146900Y315100D01*
X147300D01*
X146900Y315500D01*
X147300Y315900D01*
X146900D01*
X146500Y316300D01*
X146100Y315900D01*
X145700D01*
X146100Y315500D01*
X145700Y315100D01*
X146100D01*
X146500Y314700D01*
Y315100D02*
X146700Y315300D01*
X146900D01*
X146700Y315500D01*
X146900Y315700D01*
X146700D01*
X146500Y315900D01*
X146300Y315700D01*
X146100D01*
X146300Y315500D01*
X146100Y315300D01*
X146300D01*
X146500Y315100D01*
X143000Y315700D02*
X143400Y316100D01*
X143800D01*
X143400Y316500D01*
X143800Y316900D01*
X143400D01*
X143000Y317300D01*
X142600Y316900D01*
X142200D01*
X142600Y316500D01*
X142200Y316100D01*
X142600D01*
X143000Y315700D01*
Y316100D02*
X143200Y316300D01*
X143400D01*
X143200Y316500D01*
X143400Y316700D01*
X143200D01*
X143000Y316900D01*
X142800Y316700D01*
X142600D01*
X142800Y316500D01*
X142600Y316300D01*
X142800D01*
X143000Y316100D01*
X156500Y270700D02*
X156900Y271100D01*
X157300D01*
X156900Y271500D01*
X157300Y271900D01*
X156900D01*
X156500Y272300D01*
X156100Y271900D01*
X155700D01*
X156100Y271500D01*
X155700Y271100D01*
X156100D01*
X156500Y270700D01*
Y271100D02*
X156700Y271300D01*
X156900D01*
X156700Y271500D01*
X156900Y271700D01*
X156700D01*
X156500Y271900D01*
X156300Y271700D01*
X156100D01*
X156300Y271500D01*
X156100Y271300D01*
X156300D01*
X156500Y271100D01*
X145500Y266200D02*
X145900Y266600D01*
X146300D01*
X145900Y267000D01*
X146300Y267400D01*
X145900D01*
X145500Y267800D01*
X145100Y267400D01*
X144700D01*
X145100Y267000D01*
X144700Y266600D01*
X145100D01*
X145500Y266200D01*
Y266600D02*
X145700Y266800D01*
X145900D01*
X145700Y267000D01*
X145900Y267200D01*
X145700D01*
X145500Y267400D01*
X145300Y267200D01*
X145100D01*
X145300Y267000D01*
X145100Y266800D01*
X145300D01*
X145500Y266600D01*
X109500Y296200D02*
X109900Y296600D01*
X110300D01*
X109900Y297000D01*
X110300Y297400D01*
X109900D01*
X109500Y297800D01*
X109100Y297400D01*
X108700D01*
X109100Y297000D01*
X108700Y296600D01*
X109100D01*
X109500Y296200D01*
Y296600D02*
X109700Y296800D01*
X109900D01*
X109700Y297000D01*
X109900Y297200D01*
X109700D01*
X109500Y297400D01*
X109300Y297200D01*
X109100D01*
X109300Y297000D01*
X109100Y296800D01*
X109300D01*
X109500Y296600D01*
X110500Y300200D02*
X110900Y300600D01*
X111300D01*
X110900Y301000D01*
X111300Y301400D01*
X110900D01*
X110500Y301800D01*
X110100Y301400D01*
X109700D01*
X110100Y301000D01*
X109700Y300600D01*
X110100D01*
X110500Y300200D01*
Y300600D02*
X110700Y300800D01*
X110900D01*
X110700Y301000D01*
X110900Y301200D01*
X110700D01*
X110500Y301400D01*
X110300Y301200D01*
X110100D01*
X110300Y301000D01*
X110100Y300800D01*
X110300D01*
X110500Y300600D01*
X128500Y331200D02*
X128900Y331600D01*
X129300D01*
X128900Y332000D01*
X129300Y332400D01*
X128900D01*
X128500Y332800D01*
X128100Y332400D01*
X127700D01*
X128100Y332000D01*
X127700Y331600D01*
X128100D01*
X128500Y331200D01*
Y331600D02*
X128700Y331800D01*
X128900D01*
X128700Y332000D01*
X128900Y332200D01*
X128700D01*
X128500Y332400D01*
X128300Y332200D01*
X128100D01*
X128300Y332000D01*
X128100Y331800D01*
X128300D01*
X128500Y331600D01*
X143000Y329200D02*
X143400Y329600D01*
X143800D01*
X143400Y330000D01*
X143800Y330400D01*
X143400D01*
X143000Y330800D01*
X142600Y330400D01*
X142200D01*
X142600Y330000D01*
X142200Y329600D01*
X142600D01*
X143000Y329200D01*
Y329600D02*
X143200Y329800D01*
X143400D01*
X143200Y330000D01*
X143400Y330200D01*
X143200D01*
X143000Y330400D01*
X142800Y330200D01*
X142600D01*
X142800Y330000D01*
X142600Y329800D01*
X142800D01*
X143000Y329600D01*
X127000Y262200D02*
X127400Y262600D01*
X127800D01*
X127400Y263000D01*
X127800Y263400D01*
X127400D01*
X127000Y263800D01*
X126600Y263400D01*
X126200D01*
X126600Y263000D01*
X126200Y262600D01*
X126600D01*
X127000Y262200D01*
Y262600D02*
X127200Y262800D01*
X127400D01*
X127200Y263000D01*
X127400Y263200D01*
X127200D01*
X127000Y263400D01*
X126800Y263200D01*
X126600D01*
X126800Y263000D01*
X126600Y262800D01*
X126800D01*
X127000Y262600D01*
X124500Y265700D02*
X124900Y266100D01*
X125300D01*
X124900Y266500D01*
X125300Y266900D01*
X124900D01*
X124500Y267300D01*
X124100Y266900D01*
X123700D01*
X124100Y266500D01*
X123700Y266100D01*
X124100D01*
X124500Y265700D01*
Y266100D02*
X124700Y266300D01*
X124900D01*
X124700Y266500D01*
X124900Y266700D01*
X124700D01*
X124500Y266900D01*
X124300Y266700D01*
X124100D01*
X124300Y266500D01*
X124100Y266300D01*
X124300D01*
X124500Y266100D01*
X150000Y270200D02*
X150400Y270600D01*
X150800D01*
X150400Y271000D01*
X150800Y271400D01*
X150400D01*
X150000Y271800D01*
X149600Y271400D01*
X149200D01*
X149600Y271000D01*
X149200Y270600D01*
X149600D01*
X150000Y270200D01*
Y270600D02*
X150200Y270800D01*
X150400D01*
X150200Y271000D01*
X150400Y271200D01*
X150200D01*
X150000Y271400D01*
X149800Y271200D01*
X149600D01*
X149800Y271000D01*
X149600Y270800D01*
X149800D01*
X150000Y270600D01*
X153000Y272700D02*
X153400Y273100D01*
X153800D01*
X153400Y273500D01*
X153800Y273900D01*
X153400D01*
X153000Y274300D01*
X152600Y273900D01*
X152200D01*
X152600Y273500D01*
X152200Y273100D01*
X152600D01*
X153000Y272700D01*
Y273100D02*
X153200Y273300D01*
X153400D01*
X153200Y273500D01*
X153400Y273700D01*
X153200D01*
X153000Y273900D01*
X152800Y273700D01*
X152600D01*
X152800Y273500D01*
X152600Y273300D01*
X152800D01*
X153000Y273100D01*
X443110Y252547D02*
X443510Y252946D01*
X443910D01*
X443510Y253346D01*
X443910Y253747D01*
X443510D01*
X443110Y254147D01*
X442710Y253747D01*
X442310D01*
X442710Y253346D01*
X442310Y252946D01*
X442710D01*
X443110Y252547D01*
Y252946D02*
X443310Y253147D01*
X443510D01*
X443310Y253346D01*
X443510Y253547D01*
X443310D01*
X443110Y253747D01*
X442910Y253547D01*
X442710D01*
X442910Y253346D01*
X442710Y253147D01*
X442910D01*
X443110Y252946D01*
X368307Y252547D02*
X368707Y252946D01*
X369107D01*
X368707Y253346D01*
X369107Y253747D01*
X368707D01*
X368307Y254147D01*
X367907Y253747D01*
X367507D01*
X367907Y253346D01*
X367507Y252946D01*
X367907D01*
X368307Y252547D01*
Y252946D02*
X368507Y253147D01*
X368707D01*
X368507Y253346D01*
X368707Y253547D01*
X368507D01*
X368307Y253747D01*
X368107Y253547D01*
X367907D01*
X368107Y253346D01*
X367907Y253147D01*
X368107D01*
X368307Y252946D01*
X293307Y252547D02*
X293707Y252946D01*
X294107D01*
X293707Y253346D01*
X294107Y253747D01*
X293707D01*
X293307Y254147D01*
X292907Y253747D01*
X292507D01*
X292907Y253346D01*
X292507Y252946D01*
X292907D01*
X293307Y252547D01*
Y252946D02*
X293507Y253147D01*
X293707D01*
X293507Y253346D01*
X293707Y253547D01*
X293507D01*
X293307Y253747D01*
X293107Y253547D01*
X292907D01*
X293107Y253346D01*
X292907Y253147D01*
X293107D01*
X293307Y252946D01*
X218307Y252547D02*
X218707Y252946D01*
X219107D01*
X218707Y253346D01*
X219107Y253747D01*
X218707D01*
X218307Y254147D01*
X217907Y253747D01*
X217507D01*
X217907Y253346D01*
X217507Y252946D01*
X217907D01*
X218307Y252547D01*
Y252946D02*
X218507Y253147D01*
X218707D01*
X218507Y253346D01*
X218707Y253547D01*
X218507D01*
X218307Y253747D01*
X218107Y253547D01*
X217907D01*
X218107Y253346D01*
X217907Y253147D01*
X218107D01*
X218307Y252946D01*
Y177547D02*
X218707Y177946D01*
X219107D01*
X218707Y178347D01*
X219107Y178746D01*
X218707D01*
X218307Y179147D01*
X217907Y178746D01*
X217507D01*
X217907Y178347D01*
X217507Y177946D01*
X217907D01*
X218307Y177547D01*
Y177946D02*
X218507Y178147D01*
X218707D01*
X218507Y178347D01*
X218707Y178547D01*
X218507D01*
X218307Y178746D01*
X218107Y178547D01*
X217907D01*
X218107Y178347D01*
X217907Y178147D01*
X218107D01*
X218307Y177946D01*
X293307Y177547D02*
X293707Y177946D01*
X294107D01*
X293707Y178347D01*
X294107Y178746D01*
X293707D01*
X293307Y179147D01*
X292907Y178746D01*
X292507D01*
X292907Y178347D01*
X292507Y177946D01*
X292907D01*
X293307Y177547D01*
Y177946D02*
X293507Y178147D01*
X293707D01*
X293507Y178347D01*
X293707Y178547D01*
X293507D01*
X293307Y178746D01*
X293107Y178547D01*
X292907D01*
X293107Y178347D01*
X292907Y178147D01*
X293107D01*
X293307Y177946D01*
X368307Y177547D02*
X368707Y177946D01*
X369107D01*
X368707Y178347D01*
X369107Y178746D01*
X368707D01*
X368307Y179147D01*
X367907Y178746D01*
X367507D01*
X367907Y178347D01*
X367507Y177946D01*
X367907D01*
X368307Y177547D01*
Y177946D02*
X368507Y178147D01*
X368707D01*
X368507Y178347D01*
X368707Y178547D01*
X368507D01*
X368307Y178746D01*
X368107Y178547D01*
X367907D01*
X368107Y178347D01*
X367907Y178147D01*
X368107D01*
X368307Y177946D01*
X443307Y177547D02*
X443707Y177946D01*
X444107D01*
X443707Y178347D01*
X444107Y178746D01*
X443707D01*
X443307Y179147D01*
X442907Y178746D01*
X442507D01*
X442907Y178347D01*
X442507Y177946D01*
X442907D01*
X443307Y177547D01*
Y177946D02*
X443507Y178147D01*
X443707D01*
X443507Y178347D01*
X443707Y178547D01*
X443507D01*
X443307Y178746D01*
X443107Y178547D01*
X442907D01*
X443107Y178347D01*
X442907Y178147D01*
X443107D01*
X443307Y177946D01*
D107*
X434166Y220374D02*
G03*
X434166Y220374I-800J0D01*
G01*
X359166D02*
G03*
X359166Y220374I-800J0D01*
G01*
X284166D02*
G03*
X284166Y220374I-800J0D01*
G01*
X434166Y145374D02*
G03*
X434166Y145374I-800J0D01*
G01*
X359166D02*
G03*
X359166Y145374I-800J0D01*
G01*
X284166D02*
G03*
X284166Y145374I-800J0D01*
G01*
X209166D02*
G03*
X209166Y145374I-800J0D01*
G01*
X153261Y329232D02*
G03*
X153261Y329232I-800J0D01*
G01*
X119205D02*
G03*
X119205Y329232I-800J0D01*
G01*
X209166Y220374D02*
G03*
X209166Y220374I-800J0D01*
G01*
D108*
X152861Y329232D02*
G03*
X152861Y329232I-400J0D01*
G01*
X118806D02*
G03*
X118806Y329232I-400J0D01*
G01*
M02*
