M48
;Layer_Color=6321
;FILE_FORMAT=2:4
INCH,TZ
;TYPE=PLATED
T1F00S00C0.0236
T3F00S00C0.0394
T4F00S00C0.0400
T5F00S00C0.0590
%
T01
X35300Y10800
X46700Y15200
X46000Y18500
X46400Y20250
X44350
X44331Y17835
X36831
X36850Y20250
X37650
X36831Y25335
X44311
X43800Y26450
X46150Y27350
X29331Y25335
X29665Y30079
Y30925
X29350Y20250
X30150
X29331Y17835
X21831
X21850Y20250
X22650
X21831Y25335
X18450Y27250
X16000Y27350
X15650Y27150
X16200Y16700
X11750Y16100
X13850Y19450
X13550Y22150
X13850Y22900
X11100Y23100
Y20900
X15550Y21150
X15300Y27350
X15000Y27100
X14550Y26700
X12450Y26650
X12700Y26300
X10950Y29700
X11050Y30100
X11750Y31000
Y31350
X11950Y31650
X14300
X14650Y31550
X14300Y33000
X12850Y33200
X15950Y34600
T03
X38602Y28543
X39587
X40571
X25571
X24587
X23602
Y34252
X25571
X38602
X40571
T04
X12039Y11358
X13039
X14039
X15039
T05
X19337Y15537
X26837
X34337
X41837
X44337Y16537
Y24037
X41837Y23037
X36837Y24037
X34337Y23037
X36837Y16537
X29337
Y24037
X26837Y23037
X21837Y24037
X19337Y23037
X21837Y16537
M30
